<?xml version="1.0" encoding="utf-8" standalone="no"?>
<!DOCTYPE svg PUBLIC "-//W3C//DTD SVG 1.1//EN"
  "http://www.w3.org/Graphics/SVG/1.1/DTD/svg11.dtd">
<svg xmlns:xlink="http://www.w3.org/1999/xlink" width="1440pt" height="720pt" viewBox="0 0 1440 720" xmlns="http://www.w3.org/2000/svg" version="1.1">
 <metadata>
  <rdf:RDF xmlns:dc="http://purl.org/dc/elements/1.1/" xmlns:cc="http://creativecommons.org/ns#" xmlns:rdf="http://www.w3.org/1999/02/22-rdf-syntax-ns#">
   <cc:Work>
    <dc:type rdf:resource="http://purl.org/dc/dcmitype/StillImage"/>
    <dc:date>2025-06-07T04:27:01.057816</dc:date>
    <dc:format>image/svg+xml</dc:format>
    <dc:creator>
     <cc:Agent>
      <dc:title>Matplotlib v3.10.1, https://matplotlib.org/</dc:title>
     </cc:Agent>
    </dc:creator>
   </cc:Work>
  </rdf:RDF>
 </metadata>
 <defs>
  <style type="text/css">*{stroke-linejoin: round; stroke-linecap: butt}</style>
 </defs>
 <g id="figure_1">
  <g id="patch_1">
   <path d="M 0 720 
L 1440 720 
L 1440 0 
L 0 0 
z
" style="fill: #ffffff"/>
  </g>
  <g id="patch_2">
   <path d="M 432 648 
L 1008 648 
L 1008 72 
L 432 72 
z
" style="fill: #ffffff"/>
  </g>
  <g id="pane3d_1">
   <g id="patch_3">
    <path d="M 618.181045 319.244647 
L 921.444319 371.193187 
L 931.415556 181.121115 
L 612.654814 130.494673 
" style="fill: #add8e6; opacity: 0.5; stroke: #f2f2f2; stroke-linejoin: miter"/>
   </g>
  </g>
  <g id="pane3d_2">
   <g id="patch_4">
    <path d="M 618.181045 319.244647 
L 522.847852 524.407096 
L 511.64814 331.036889 
L 612.654814 130.494673 
" style="fill: #add8e6; opacity: 0.5; stroke: #e6e6e6; stroke-linejoin: miter"/>
   </g>
  </g>
  <g id="pane3d_3">
   <g id="patch_5">
    <path d="M 618.181045 319.244647 
L 522.847852 524.407096 
L 848.680007 585.044647 
L 921.444319 371.193187 
" style="fill: #add8e6; opacity: 0.5; stroke: #ececec; stroke-linejoin: miter"/>
   </g>
  </g>
  <g id="grid3d_1">
   <g id="Line3DCollection_1">
    <path d="M 921.117215 372.154533 
L 617.751801 320.168405 
L 612.20184 131.394023 
" style="fill: none; stroke: #ffffff; stroke-width: 0.5"/>
    <path d="M 913.129923 395.62887 
L 607.272346 342.720787 
L 601.137979 153.360603 
" style="fill: none; stroke: #ffffff; stroke-width: 0.5"/>
    <path d="M 904.998902 419.525623 
L 596.608106 365.670839 
L 589.869005 175.734424 
" style="fill: none; stroke: #ffffff; stroke-width: 0.5"/>
    <path d="M 896.720236 443.856298 
L 585.754148 389.029173 
L 578.389159 198.526915 
" style="fill: none; stroke: #ffffff; stroke-width: 0.5"/>
    <path d="M 888.289867 468.632822 
L 574.705365 412.806782 
L 566.692467 221.74994 
" style="fill: none; stroke: #ffffff; stroke-width: 0.5"/>
    <path d="M 879.703587 493.867563 
L 563.456463 437.015057 
L 554.772726 245.415814 
" style="fill: none; stroke: #ffffff; stroke-width: 0.5"/>
    <path d="M 870.957029 519.573352 
L 552.001957 461.665806 
L 542.623495 269.537325 
" style="fill: none; stroke: #ffffff; stroke-width: 0.5"/>
    <path d="M 862.045666 545.763501 
L 540.336157 486.771271 
L 530.238083 294.12776 
" style="fill: none; stroke: #ffffff; stroke-width: 0.5"/>
    <path d="M 852.964793 572.45183 
L 528.453162 512.344151 
L 517.609533 319.200928 
" style="fill: none; stroke: #ffffff; stroke-width: 0.5"/>
   </g>
  </g>
  <g id="grid3d_2">
   <g id="Line3DCollection_2">
    <path d="M 631.870825 133.546612 
L 636.480275 322.379277 
L 542.479319 528.060523 
" style="fill: none; stroke: #ffffff; stroke-width: 0.5"/>
    <path d="M 674.608577 140.334337 
L 677.171004 329.349538 
L 586.146056 536.186928 
" style="fill: none; stroke: #ffffff; stroke-width: 0.5"/>
    <path d="M 717.58938 147.160664 
L 718.081961 336.357523 
L 630.068059 544.360838 
" style="fill: none; stroke: #ffffff; stroke-width: 0.5"/>
    <path d="M 760.815313 154.025924 
L 759.214939 343.40354 
L 674.247572 552.58267 
" style="fill: none; stroke: #ffffff; stroke-width: 0.5"/>
    <path d="M 804.288479 160.930449 
L 800.571749 350.487899 
L 718.686868 560.852849 
" style="fill: none; stroke: #ffffff; stroke-width: 0.5"/>
    <path d="M 848.011005 167.874579 
L 842.154225 357.610914 
L 763.388244 569.171801 
" style="fill: none; stroke: #ffffff; stroke-width: 0.5"/>
    <path d="M 891.985043 174.858655 
L 883.964217 364.772902 
L 808.354026 577.539958 
" style="fill: none; stroke: #ffffff; stroke-width: 0.5"/>
   </g>
  </g>
  <g id="grid3d_3">
   <g id="Line3DCollection_3">
    <path d="M 522.171007 512.720934 
L 617.845809 307.794564 
L 922.048624 359.6739 
" style="fill: none; stroke: #ffffff; stroke-width: 0.5"/>
    <path d="M 520.520258 484.219691 
L 617.028889 279.892438 
L 923.521537 331.597191 
" style="fill: none; stroke: #ffffff; stroke-width: 0.5"/>
    <path d="M 518.842788 455.257104 
L 616.199738 251.57254 
L 925.016955 303.091474 
" style="fill: none; stroke: #ffffff; stroke-width: 0.5"/>
    <path d="M 517.137944 425.821878 
L 615.358078 222.825419 
L 926.535399 274.146842 
" style="fill: none; stroke: #ffffff; stroke-width: 0.5"/>
    <path d="M 515.40505 395.90235 
L 614.503625 193.641331 
L 928.077404 244.753079 
" style="fill: none; stroke: #ffffff; stroke-width: 0.5"/>
    <path d="M 513.643408 365.486469 
L 613.636085 164.01024 
L 929.643524 214.89965 
" style="fill: none; stroke: #ffffff; stroke-width: 0.5"/>
    <path d="M 511.852296 334.561779 
L 612.755154 133.921794 
L 931.234328 184.575686 
" style="fill: none; stroke: #ffffff; stroke-width: 0.5"/>
   </g>
  </g>
  <g id="axis3d_1">
   <g id="line2d_1">
    <path d="M 921.444319 371.193187 
L 848.680007 585.044647 
" style="fill: none; stroke: #000000; stroke-width: 0.8; stroke-linecap: square"/>
   </g>
   <g id="xtick_1">
    <g id="line2d_2">
     <path d="M 918.641799 371.730333 
L 926.070443 373.003341 
" style="fill: none; stroke: #000000; stroke-width: 0.8; stroke-linecap: square"/>
    </g>
    <g id="text_1">
     <!-- 1.00 -->
     <g transform="translate(921.471953 388.706064) scale(0.1 -0.1)">
      <defs>
       <path id="DejaVuSans-31" d="M 794 531 
L 1825 531 
L 1825 4091 
L 703 3866 
L 703 4441 
L 1819 4666 
L 2450 4666 
L 2450 531 
L 3481 531 
L 3481 0 
L 794 0 
L 794 531 
z
" transform="scale(0.015625)"/>
       <path id="DejaVuSans-2e" d="M 684 794 
L 1344 794 
L 1344 0 
L 684 0 
L 684 794 
z
" transform="scale(0.015625)"/>
       <path id="DejaVuSans-30" d="M 2034 4250 
Q 1547 4250 1301 3770 
Q 1056 3291 1056 2328 
Q 1056 1369 1301 889 
Q 1547 409 2034 409 
Q 2525 409 2770 889 
Q 3016 1369 3016 2328 
Q 3016 3291 2770 3770 
Q 2525 4250 2034 4250 
z
M 2034 4750 
Q 2819 4750 3233 4129 
Q 3647 3509 3647 2328 
Q 3647 1150 3233 529 
Q 2819 -91 2034 -91 
Q 1250 -91 836 529 
Q 422 1150 422 2328 
Q 422 3509 836 4129 
Q 1250 4750 2034 4750 
z
" transform="scale(0.015625)"/>
      </defs>
      <use xlink:href="#DejaVuSans-31"/>
      <use xlink:href="#DejaVuSans-2e" transform="translate(63.623047 0)"/>
      <use xlink:href="#DejaVuSans-30" transform="translate(95.410156 0)"/>
      <use xlink:href="#DejaVuSans-30" transform="translate(159.033203 0)"/>
     </g>
    </g>
   </g>
   <g id="xtick_2">
    <g id="line2d_3">
     <path d="M 910.633735 395.197072 
L 918.124736 396.492886 
" style="fill: none; stroke: #000000; stroke-width: 0.8; stroke-linecap: square"/>
    </g>
    <g id="text_2">
     <!-- 1.25 -->
     <g transform="translate(913.595883 412.233996) scale(0.1 -0.1)">
      <defs>
       <path id="DejaVuSans-32" d="M 1228 531 
L 3431 531 
L 3431 0 
L 469 0 
L 469 531 
Q 828 903 1448 1529 
Q 2069 2156 2228 2338 
Q 2531 2678 2651 2914 
Q 2772 3150 2772 3378 
Q 2772 3750 2511 3984 
Q 2250 4219 1831 4219 
Q 1534 4219 1204 4116 
Q 875 4013 500 3803 
L 500 4441 
Q 881 4594 1212 4672 
Q 1544 4750 1819 4750 
Q 2544 4750 2975 4387 
Q 3406 4025 3406 3419 
Q 3406 3131 3298 2873 
Q 3191 2616 2906 2266 
Q 2828 2175 2409 1742 
Q 1991 1309 1228 531 
z
" transform="scale(0.015625)"/>
       <path id="DejaVuSans-35" d="M 691 4666 
L 3169 4666 
L 3169 4134 
L 1269 4134 
L 1269 2991 
Q 1406 3038 1543 3061 
Q 1681 3084 1819 3084 
Q 2600 3084 3056 2656 
Q 3513 2228 3513 1497 
Q 3513 744 3044 326 
Q 2575 -91 1722 -91 
Q 1428 -91 1123 -41 
Q 819 9 494 109 
L 494 744 
Q 775 591 1075 516 
Q 1375 441 1709 441 
Q 2250 441 2565 725 
Q 2881 1009 2881 1497 
Q 2881 1984 2565 2268 
Q 2250 2553 1709 2553 
Q 1456 2553 1204 2497 
Q 953 2441 691 2322 
L 691 4666 
z
" transform="scale(0.015625)"/>
      </defs>
      <use xlink:href="#DejaVuSans-31"/>
      <use xlink:href="#DejaVuSans-2e" transform="translate(63.623047 0)"/>
      <use xlink:href="#DejaVuSans-32" transform="translate(95.410156 0)"/>
      <use xlink:href="#DejaVuSans-35" transform="translate(159.033203 0)"/>
     </g>
    </g>
   </g>
   <g id="xtick_3">
    <g id="line2d_4">
     <path d="M 902.481592 419.086021 
L 910.036 420.40526 
" style="fill: none; stroke: #000000; stroke-width: 0.8; stroke-linecap: square"/>
    </g>
    <g id="text_3">
     <!-- 1.50 -->
     <g transform="translate(905.578243 436.184832) scale(0.1 -0.1)">
      <use xlink:href="#DejaVuSans-31"/>
      <use xlink:href="#DejaVuSans-2e" transform="translate(63.623047 0)"/>
      <use xlink:href="#DejaVuSans-35" transform="translate(95.410156 0)"/>
      <use xlink:href="#DejaVuSans-30" transform="translate(159.033203 0)"/>
     </g>
    </g>
   </g>
   <g id="xtick_4">
    <g id="line2d_5">
     <path d="M 894.181445 443.408678 
L 901.80034 444.751983 
" style="fill: none; stroke: #000000; stroke-width: 0.8; stroke-linecap: square"/>
    </g>
    <g id="text_4">
     <!-- 1.75 -->
     <g transform="translate(897.415183 460.570079) scale(0.1 -0.1)">
      <defs>
       <path id="DejaVuSans-37" d="M 525 4666 
L 3525 4666 
L 3525 4397 
L 1831 0 
L 1172 0 
L 2766 4134 
L 525 4134 
L 525 4666 
z
" transform="scale(0.015625)"/>
      </defs>
      <use xlink:href="#DejaVuSans-31"/>
      <use xlink:href="#DejaVuSans-2e" transform="translate(63.623047 0)"/>
      <use xlink:href="#DejaVuSans-37" transform="translate(95.410156 0)"/>
      <use xlink:href="#DejaVuSans-35" transform="translate(159.033203 0)"/>
     </g>
    </g>
   </g>
   <g id="xtick_5">
    <g id="line2d_6">
     <path d="M 885.729227 468.176963 
L 893.413714 469.544998 
" style="fill: none; stroke: #000000; stroke-width: 0.8; stroke-linecap: square"/>
    </g>
    <g id="text_5">
     <!-- 2.00 -->
     <g transform="translate(889.102709 485.401663) scale(0.1 -0.1)">
      <use xlink:href="#DejaVuSans-32"/>
      <use xlink:href="#DejaVuSans-2e" transform="translate(63.623047 0)"/>
      <use xlink:href="#DejaVuSans-30" transform="translate(95.410156 0)"/>
      <use xlink:href="#DejaVuSans-30" transform="translate(159.033203 0)"/>
     </g>
    </g>
   </g>
   <g id="xtick_6">
    <g id="line2d_7">
     <path d="M 877.12072 493.403235 
L 884.871933 494.796689 
" style="fill: none; stroke: #000000; stroke-width: 0.8; stroke-linecap: square"/>
    </g>
    <g id="text_6">
     <!-- 2.25 -->
     <g transform="translate(880.636682 510.691951) scale(0.1 -0.1)">
      <use xlink:href="#DejaVuSans-32"/>
      <use xlink:href="#DejaVuSans-2e" transform="translate(63.623047 0)"/>
      <use xlink:href="#DejaVuSans-32" transform="translate(95.410156 0)"/>
      <use xlink:href="#DejaVuSans-35" transform="translate(159.033203 0)"/>
     </g>
    </g>
   </g>
   <g id="xtick_7">
    <g id="line2d_8">
     <path d="M 868.351549 519.100316 
L 876.170652 520.519905 
" style="fill: none; stroke: #000000; stroke-width: 0.8; stroke-linecap: square"/>
    </g>
    <g id="text_7">
     <!-- 2.50 -->
     <g transform="translate(872.012808 536.453774) scale(0.1 -0.1)">
      <use xlink:href="#DejaVuSans-32"/>
      <use xlink:href="#DejaVuSans-2e" transform="translate(63.623047 0)"/>
      <use xlink:href="#DejaVuSans-35" transform="translate(95.410156 0)"/>
      <use xlink:href="#DejaVuSans-30" transform="translate(159.033203 0)"/>
     </g>
    </g>
   </g>
   <g id="xtick_8">
    <g id="line2d_9">
     <path d="M 859.417173 545.281511 
L 867.305361 546.727977 
" style="fill: none; stroke: #000000; stroke-width: 0.8; stroke-linecap: square"/>
    </g>
    <g id="text_8">
     <!-- 2.75 -->
     <g transform="translate(863.226629 562.700441) scale(0.1 -0.1)">
      <use xlink:href="#DejaVuSans-32"/>
      <use xlink:href="#DejaVuSans-2e" transform="translate(63.623047 0)"/>
      <use xlink:href="#DejaVuSans-37" transform="translate(95.410156 0)"/>
      <use xlink:href="#DejaVuSans-35" transform="translate(159.033203 0)"/>
     </g>
    </g>
   </g>
   <g id="xtick_9">
    <g id="line2d_10">
     <path d="M 850.31288 571.96063 
L 858.271379 573.434743 
" style="fill: none; stroke: #000000; stroke-width: 0.8; stroke-linecap: square"/>
    </g>
    <g id="text_9">
     <!-- 3.00 -->
     <g transform="translate(854.273521 589.445771) scale(0.1 -0.1)">
      <defs>
       <path id="DejaVuSans-33" d="M 2597 2516 
Q 3050 2419 3304 2112 
Q 3559 1806 3559 1356 
Q 3559 666 3084 287 
Q 2609 -91 1734 -91 
Q 1441 -91 1130 -33 
Q 819 25 488 141 
L 488 750 
Q 750 597 1062 519 
Q 1375 441 1716 441 
Q 2309 441 2620 675 
Q 2931 909 2931 1356 
Q 2931 1769 2642 2001 
Q 2353 2234 1838 2234 
L 1294 2234 
L 1294 2753 
L 1863 2753 
Q 2328 2753 2575 2939 
Q 2822 3125 2822 3475 
Q 2822 3834 2567 4026 
Q 2313 4219 1838 4219 
Q 1578 4219 1281 4162 
Q 984 4106 628 3988 
L 628 4550 
Q 988 4650 1302 4700 
Q 1616 4750 1894 4750 
Q 2613 4750 3031 4423 
Q 3450 4097 3450 3541 
Q 3450 3153 3228 2886 
Q 3006 2619 2597 2516 
z
" transform="scale(0.015625)"/>
      </defs>
      <use xlink:href="#DejaVuSans-33"/>
      <use xlink:href="#DejaVuSans-2e" transform="translate(63.623047 0)"/>
      <use xlink:href="#DejaVuSans-30" transform="translate(95.410156 0)"/>
      <use xlink:href="#DejaVuSans-30" transform="translate(159.033203 0)"/>
     </g>
    </g>
   </g>
   <g id="text_10">
    <!-- Band gap (eV) -->
    <g transform="translate(903.54339 528.684031) rotate(-71.208803) scale(0.1 -0.1)">
     <defs>
      <path id="DejaVuSans-42" d="M 1259 2228 
L 1259 519 
L 2272 519 
Q 2781 519 3026 730 
Q 3272 941 3272 1375 
Q 3272 1813 3026 2020 
Q 2781 2228 2272 2228 
L 1259 2228 
z
M 1259 4147 
L 1259 2741 
L 2194 2741 
Q 2656 2741 2882 2914 
Q 3109 3088 3109 3444 
Q 3109 3797 2882 3972 
Q 2656 4147 2194 4147 
L 1259 4147 
z
M 628 4666 
L 2241 4666 
Q 2963 4666 3353 4366 
Q 3744 4066 3744 3513 
Q 3744 3084 3544 2831 
Q 3344 2578 2956 2516 
Q 3422 2416 3680 2098 
Q 3938 1781 3938 1306 
Q 3938 681 3513 340 
Q 3088 0 2303 0 
L 628 0 
L 628 4666 
z
" transform="scale(0.015625)"/>
      <path id="DejaVuSans-61" d="M 2194 1759 
Q 1497 1759 1228 1600 
Q 959 1441 959 1056 
Q 959 750 1161 570 
Q 1363 391 1709 391 
Q 2188 391 2477 730 
Q 2766 1069 2766 1631 
L 2766 1759 
L 2194 1759 
z
M 3341 1997 
L 3341 0 
L 2766 0 
L 2766 531 
Q 2569 213 2275 61 
Q 1981 -91 1556 -91 
Q 1019 -91 701 211 
Q 384 513 384 1019 
Q 384 1609 779 1909 
Q 1175 2209 1959 2209 
L 2766 2209 
L 2766 2266 
Q 2766 2663 2505 2880 
Q 2244 3097 1772 3097 
Q 1472 3097 1187 3025 
Q 903 2953 641 2809 
L 641 3341 
Q 956 3463 1253 3523 
Q 1550 3584 1831 3584 
Q 2591 3584 2966 3190 
Q 3341 2797 3341 1997 
z
" transform="scale(0.015625)"/>
      <path id="DejaVuSans-6e" d="M 3513 2113 
L 3513 0 
L 2938 0 
L 2938 2094 
Q 2938 2591 2744 2837 
Q 2550 3084 2163 3084 
Q 1697 3084 1428 2787 
Q 1159 2491 1159 1978 
L 1159 0 
L 581 0 
L 581 3500 
L 1159 3500 
L 1159 2956 
Q 1366 3272 1645 3428 
Q 1925 3584 2291 3584 
Q 2894 3584 3203 3211 
Q 3513 2838 3513 2113 
z
" transform="scale(0.015625)"/>
      <path id="DejaVuSans-64" d="M 2906 2969 
L 2906 4863 
L 3481 4863 
L 3481 0 
L 2906 0 
L 2906 525 
Q 2725 213 2448 61 
Q 2172 -91 1784 -91 
Q 1150 -91 751 415 
Q 353 922 353 1747 
Q 353 2572 751 3078 
Q 1150 3584 1784 3584 
Q 2172 3584 2448 3432 
Q 2725 3281 2906 2969 
z
M 947 1747 
Q 947 1113 1208 752 
Q 1469 391 1925 391 
Q 2381 391 2643 752 
Q 2906 1113 2906 1747 
Q 2906 2381 2643 2742 
Q 2381 3103 1925 3103 
Q 1469 3103 1208 2742 
Q 947 2381 947 1747 
z
" transform="scale(0.015625)"/>
      <path id="DejaVuSans-20" transform="scale(0.015625)"/>
      <path id="DejaVuSans-67" d="M 2906 1791 
Q 2906 2416 2648 2759 
Q 2391 3103 1925 3103 
Q 1463 3103 1205 2759 
Q 947 2416 947 1791 
Q 947 1169 1205 825 
Q 1463 481 1925 481 
Q 2391 481 2648 825 
Q 2906 1169 2906 1791 
z
M 3481 434 
Q 3481 -459 3084 -895 
Q 2688 -1331 1869 -1331 
Q 1566 -1331 1297 -1286 
Q 1028 -1241 775 -1147 
L 775 -588 
Q 1028 -725 1275 -790 
Q 1522 -856 1778 -856 
Q 2344 -856 2625 -561 
Q 2906 -266 2906 331 
L 2906 616 
Q 2728 306 2450 153 
Q 2172 0 1784 0 
Q 1141 0 747 490 
Q 353 981 353 1791 
Q 353 2603 747 3093 
Q 1141 3584 1784 3584 
Q 2172 3584 2450 3431 
Q 2728 3278 2906 2969 
L 2906 3500 
L 3481 3500 
L 3481 434 
z
" transform="scale(0.015625)"/>
      <path id="DejaVuSans-70" d="M 1159 525 
L 1159 -1331 
L 581 -1331 
L 581 3500 
L 1159 3500 
L 1159 2969 
Q 1341 3281 1617 3432 
Q 1894 3584 2278 3584 
Q 2916 3584 3314 3078 
Q 3713 2572 3713 1747 
Q 3713 922 3314 415 
Q 2916 -91 2278 -91 
Q 1894 -91 1617 61 
Q 1341 213 1159 525 
z
M 3116 1747 
Q 3116 2381 2855 2742 
Q 2594 3103 2138 3103 
Q 1681 3103 1420 2742 
Q 1159 2381 1159 1747 
Q 1159 1113 1420 752 
Q 1681 391 2138 391 
Q 2594 391 2855 752 
Q 3116 1113 3116 1747 
z
" transform="scale(0.015625)"/>
      <path id="DejaVuSans-28" d="M 1984 4856 
Q 1566 4138 1362 3434 
Q 1159 2731 1159 2009 
Q 1159 1288 1364 580 
Q 1569 -128 1984 -844 
L 1484 -844 
Q 1016 -109 783 600 
Q 550 1309 550 2009 
Q 550 2706 781 3412 
Q 1013 4119 1484 4856 
L 1984 4856 
z
" transform="scale(0.015625)"/>
      <path id="DejaVuSans-65" d="M 3597 1894 
L 3597 1613 
L 953 1613 
Q 991 1019 1311 708 
Q 1631 397 2203 397 
Q 2534 397 2845 478 
Q 3156 559 3463 722 
L 3463 178 
Q 3153 47 2828 -22 
Q 2503 -91 2169 -91 
Q 1331 -91 842 396 
Q 353 884 353 1716 
Q 353 2575 817 3079 
Q 1281 3584 2069 3584 
Q 2775 3584 3186 3129 
Q 3597 2675 3597 1894 
z
M 3022 2063 
Q 3016 2534 2758 2815 
Q 2500 3097 2075 3097 
Q 1594 3097 1305 2825 
Q 1016 2553 972 2059 
L 3022 2063 
z
" transform="scale(0.015625)"/>
      <path id="DejaVuSans-56" d="M 1831 0 
L 50 4666 
L 709 4666 
L 2188 738 
L 3669 4666 
L 4325 4666 
L 2547 0 
L 1831 0 
z
" transform="scale(0.015625)"/>
      <path id="DejaVuSans-29" d="M 513 4856 
L 1013 4856 
Q 1481 4119 1714 3412 
Q 1947 2706 1947 2009 
Q 1947 1309 1714 600 
Q 1481 -109 1013 -844 
L 513 -844 
Q 928 -128 1133 580 
Q 1338 1288 1338 2009 
Q 1338 2731 1133 3434 
Q 928 4138 513 4856 
z
" transform="scale(0.015625)"/>
     </defs>
     <use xlink:href="#DejaVuSans-42"/>
     <use xlink:href="#DejaVuSans-61" transform="translate(68.603516 0)"/>
     <use xlink:href="#DejaVuSans-6e" transform="translate(129.882812 0)"/>
     <use xlink:href="#DejaVuSans-64" transform="translate(193.261719 0)"/>
     <use xlink:href="#DejaVuSans-20" transform="translate(256.738281 0)"/>
     <use xlink:href="#DejaVuSans-67" transform="translate(288.525391 0)"/>
     <use xlink:href="#DejaVuSans-61" transform="translate(352.001953 0)"/>
     <use xlink:href="#DejaVuSans-70" transform="translate(413.28125 0)"/>
     <use xlink:href="#DejaVuSans-20" transform="translate(476.757812 0)"/>
     <use xlink:href="#DejaVuSans-28" transform="translate(508.544922 0)"/>
     <use xlink:href="#DejaVuSans-65" transform="translate(547.558594 0)"/>
     <use xlink:href="#DejaVuSans-56" transform="translate(609.082031 0)"/>
     <use xlink:href="#DejaVuSans-29" transform="translate(677.490234 0)"/>
    </g>
   </g>
  </g>
  <g id="axis3d_2">
   <g id="line2d_11">
    <path d="M 522.847852 524.407096 
L 848.680007 585.044647 
" style="fill: none; stroke: #000000; stroke-width: 0.8; stroke-linecap: square"/>
   </g>
   <g id="xtick_10">
    <g id="line2d_12">
     <path d="M 543.290698 526.285164 
L 540.853456 531.618036 
" style="fill: none; stroke: #000000; stroke-width: 0.8; stroke-linecap: square"/>
    </g>
    <g id="text_11">
     <!-- 0 -->
     <g transform="translate(535.772548 551.218237) scale(0.1 -0.1)">
      <use xlink:href="#DejaVuSans-30"/>
     </g>
    </g>
   </g>
   <g id="xtick_11">
    <g id="line2d_13">
     <path d="M 586.931915 534.401209 
L 584.571322 539.76522 
" style="fill: none; stroke: #000000; stroke-width: 0.8; stroke-linecap: square"/>
    </g>
    <g id="text_12">
     <!-- 100 -->
     <g transform="translate(573.113138 559.398715) scale(0.1 -0.1)">
      <use xlink:href="#DejaVuSans-31"/>
      <use xlink:href="#DejaVuSans-30" transform="translate(63.623047 0)"/>
      <use xlink:href="#DejaVuSans-30" transform="translate(127.246094 0)"/>
     </g>
    </g>
   </g>
   <g id="xtick_12">
    <g id="line2d_14">
     <path d="M 630.828085 542.564668 
L 628.545081 547.960092 
" style="fill: none; stroke: #000000; stroke-width: 0.8; stroke-linecap: square"/>
    </g>
    <g id="text_13">
     <!-- 200 -->
     <g transform="translate(617.07198 567.627066) scale(0.1 -0.1)">
      <use xlink:href="#DejaVuSans-32"/>
      <use xlink:href="#DejaVuSans-30" transform="translate(63.623047 0)"/>
      <use xlink:href="#DejaVuSans-30" transform="translate(127.246094 0)"/>
     </g>
    </g>
   </g>
   <g id="xtick_13">
    <g id="line2d_15">
     <path d="M 674.981449 550.775958 
L 672.776986 556.203071 
" style="fill: none; stroke: #000000; stroke-width: 0.8; stroke-linecap: square"/>
    </g>
    <g id="text_14">
     <!-- 300 -->
     <g transform="translate(661.288825 575.90371) scale(0.1 -0.1)">
      <use xlink:href="#DejaVuSans-33"/>
      <use xlink:href="#DejaVuSans-30" transform="translate(63.623047 0)"/>
      <use xlink:href="#DejaVuSans-30" transform="translate(127.246094 0)"/>
     </g>
    </g>
   </g>
   <g id="xtick_14">
    <g id="line2d_16">
     <path d="M 719.394274 559.035501 
L 717.269318 564.494583 
" style="fill: none; stroke: #000000; stroke-width: 0.8; stroke-linecap: square"/>
    </g>
    <g id="text_15">
     <!-- 400 -->
     <g transform="translate(705.765953 584.229075) scale(0.1 -0.1)">
      <defs>
       <path id="DejaVuSans-34" d="M 2419 4116 
L 825 1625 
L 2419 1625 
L 2419 4116 
z
M 2253 4666 
L 3047 4666 
L 3047 1625 
L 3713 1625 
L 3713 1100 
L 3047 1100 
L 3047 0 
L 2419 0 
L 2419 1100 
L 313 1100 
L 313 1709 
L 2253 4666 
z
" transform="scale(0.015625)"/>
      </defs>
      <use xlink:href="#DejaVuSans-34"/>
      <use xlink:href="#DejaVuSans-30" transform="translate(63.623047 0)"/>
      <use xlink:href="#DejaVuSans-30" transform="translate(127.246094 0)"/>
     </g>
    </g>
   </g>
   <g id="xtick_15">
    <g id="line2d_17">
     <path d="M 764.068854 567.343722 
L 762.024382 572.835058 
" style="fill: none; stroke: #000000; stroke-width: 0.8; stroke-linecap: square"/>
    </g>
    <g id="text_16">
     <!-- 500 -->
     <g transform="translate(750.505667 592.603592) scale(0.1 -0.1)">
      <use xlink:href="#DejaVuSans-35"/>
      <use xlink:href="#DejaVuSans-30" transform="translate(63.623047 0)"/>
      <use xlink:href="#DejaVuSans-30" transform="translate(127.246094 0)"/>
     </g>
    </g>
   </g>
   <g id="xtick_16">
    <g id="line2d_18">
     <path d="M 809.00751 575.701055 
L 807.044512 581.224929 
" style="fill: none; stroke: #000000; stroke-width: 0.8; stroke-linecap: square"/>
    </g>
    <g id="text_17">
     <!-- 600 -->
     <g transform="translate(795.5103 601.027697) scale(0.1 -0.1)">
      <defs>
       <path id="DejaVuSans-36" d="M 2113 2584 
Q 1688 2584 1439 2293 
Q 1191 2003 1191 1497 
Q 1191 994 1439 701 
Q 1688 409 2113 409 
Q 2538 409 2786 701 
Q 3034 994 3034 1497 
Q 3034 2003 2786 2293 
Q 2538 2584 2113 2584 
z
M 3366 4563 
L 3366 3988 
Q 3128 4100 2886 4159 
Q 2644 4219 2406 4219 
Q 1781 4219 1451 3797 
Q 1122 3375 1075 2522 
Q 1259 2794 1537 2939 
Q 1816 3084 2150 3084 
Q 2853 3084 3261 2657 
Q 3669 2231 3669 1497 
Q 3669 778 3244 343 
Q 2819 -91 2113 -91 
Q 1303 -91 875 529 
Q 447 1150 447 2328 
Q 447 3434 972 4092 
Q 1497 4750 2381 4750 
Q 2619 4750 2861 4703 
Q 3103 4656 3366 4563 
z
" transform="scale(0.015625)"/>
      </defs>
      <use xlink:href="#DejaVuSans-36"/>
      <use xlink:href="#DejaVuSans-30" transform="translate(63.623047 0)"/>
      <use xlink:href="#DejaVuSans-30" transform="translate(127.246094 0)"/>
     </g>
    </g>
   </g>
   <g id="text_18">
    <!-- Coeficiente de absorción × 10³ (cm⁻¹) -->
    <g transform="translate(582.371687 573.920385) rotate(-349.457822) scale(0.1 -0.1)">
     <defs>
      <path id="DejaVuSans-43" d="M 4122 4306 
L 4122 3641 
Q 3803 3938 3442 4084 
Q 3081 4231 2675 4231 
Q 1875 4231 1450 3742 
Q 1025 3253 1025 2328 
Q 1025 1406 1450 917 
Q 1875 428 2675 428 
Q 3081 428 3442 575 
Q 3803 722 4122 1019 
L 4122 359 
Q 3791 134 3420 21 
Q 3050 -91 2638 -91 
Q 1578 -91 968 557 
Q 359 1206 359 2328 
Q 359 3453 968 4101 
Q 1578 4750 2638 4750 
Q 3056 4750 3426 4639 
Q 3797 4528 4122 4306 
z
" transform="scale(0.015625)"/>
      <path id="DejaVuSans-6f" d="M 1959 3097 
Q 1497 3097 1228 2736 
Q 959 2375 959 1747 
Q 959 1119 1226 758 
Q 1494 397 1959 397 
Q 2419 397 2687 759 
Q 2956 1122 2956 1747 
Q 2956 2369 2687 2733 
Q 2419 3097 1959 3097 
z
M 1959 3584 
Q 2709 3584 3137 3096 
Q 3566 2609 3566 1747 
Q 3566 888 3137 398 
Q 2709 -91 1959 -91 
Q 1206 -91 779 398 
Q 353 888 353 1747 
Q 353 2609 779 3096 
Q 1206 3584 1959 3584 
z
" transform="scale(0.015625)"/>
      <path id="DejaVuSans-66" d="M 2375 4863 
L 2375 4384 
L 1825 4384 
Q 1516 4384 1395 4259 
Q 1275 4134 1275 3809 
L 1275 3500 
L 2222 3500 
L 2222 3053 
L 1275 3053 
L 1275 0 
L 697 0 
L 697 3053 
L 147 3053 
L 147 3500 
L 697 3500 
L 697 3744 
Q 697 4328 969 4595 
Q 1241 4863 1831 4863 
L 2375 4863 
z
" transform="scale(0.015625)"/>
      <path id="DejaVuSans-69" d="M 603 3500 
L 1178 3500 
L 1178 0 
L 603 0 
L 603 3500 
z
M 603 4863 
L 1178 4863 
L 1178 4134 
L 603 4134 
L 603 4863 
z
" transform="scale(0.015625)"/>
      <path id="DejaVuSans-63" d="M 3122 3366 
L 3122 2828 
Q 2878 2963 2633 3030 
Q 2388 3097 2138 3097 
Q 1578 3097 1268 2742 
Q 959 2388 959 1747 
Q 959 1106 1268 751 
Q 1578 397 2138 397 
Q 2388 397 2633 464 
Q 2878 531 3122 666 
L 3122 134 
Q 2881 22 2623 -34 
Q 2366 -91 2075 -91 
Q 1284 -91 818 406 
Q 353 903 353 1747 
Q 353 2603 823 3093 
Q 1294 3584 2113 3584 
Q 2378 3584 2631 3529 
Q 2884 3475 3122 3366 
z
" transform="scale(0.015625)"/>
      <path id="DejaVuSans-74" d="M 1172 4494 
L 1172 3500 
L 2356 3500 
L 2356 3053 
L 1172 3053 
L 1172 1153 
Q 1172 725 1289 603 
Q 1406 481 1766 481 
L 2356 481 
L 2356 0 
L 1766 0 
Q 1100 0 847 248 
Q 594 497 594 1153 
L 594 3053 
L 172 3053 
L 172 3500 
L 594 3500 
L 594 4494 
L 1172 4494 
z
" transform="scale(0.015625)"/>
      <path id="DejaVuSans-62" d="M 3116 1747 
Q 3116 2381 2855 2742 
Q 2594 3103 2138 3103 
Q 1681 3103 1420 2742 
Q 1159 2381 1159 1747 
Q 1159 1113 1420 752 
Q 1681 391 2138 391 
Q 2594 391 2855 752 
Q 3116 1113 3116 1747 
z
M 1159 2969 
Q 1341 3281 1617 3432 
Q 1894 3584 2278 3584 
Q 2916 3584 3314 3078 
Q 3713 2572 3713 1747 
Q 3713 922 3314 415 
Q 2916 -91 2278 -91 
Q 1894 -91 1617 61 
Q 1341 213 1159 525 
L 1159 0 
L 581 0 
L 581 4863 
L 1159 4863 
L 1159 2969 
z
" transform="scale(0.015625)"/>
      <path id="DejaVuSans-73" d="M 2834 3397 
L 2834 2853 
Q 2591 2978 2328 3040 
Q 2066 3103 1784 3103 
Q 1356 3103 1142 2972 
Q 928 2841 928 2578 
Q 928 2378 1081 2264 
Q 1234 2150 1697 2047 
L 1894 2003 
Q 2506 1872 2764 1633 
Q 3022 1394 3022 966 
Q 3022 478 2636 193 
Q 2250 -91 1575 -91 
Q 1294 -91 989 -36 
Q 684 19 347 128 
L 347 722 
Q 666 556 975 473 
Q 1284 391 1588 391 
Q 1994 391 2212 530 
Q 2431 669 2431 922 
Q 2431 1156 2273 1281 
Q 2116 1406 1581 1522 
L 1381 1569 
Q 847 1681 609 1914 
Q 372 2147 372 2553 
Q 372 3047 722 3315 
Q 1072 3584 1716 3584 
Q 2034 3584 2315 3537 
Q 2597 3491 2834 3397 
z
" transform="scale(0.015625)"/>
      <path id="DejaVuSans-72" d="M 2631 2963 
Q 2534 3019 2420 3045 
Q 2306 3072 2169 3072 
Q 1681 3072 1420 2755 
Q 1159 2438 1159 1844 
L 1159 0 
L 581 0 
L 581 3500 
L 1159 3500 
L 1159 2956 
Q 1341 3275 1631 3429 
Q 1922 3584 2338 3584 
Q 2397 3584 2469 3576 
Q 2541 3569 2628 3553 
L 2631 2963 
z
" transform="scale(0.015625)"/>
      <path id="DejaVuSans-f3" d="M 1959 3097 
Q 1497 3097 1228 2736 
Q 959 2375 959 1747 
Q 959 1119 1226 758 
Q 1494 397 1959 397 
Q 2419 397 2687 759 
Q 2956 1122 2956 1747 
Q 2956 2369 2687 2733 
Q 2419 3097 1959 3097 
z
M 1959 3584 
Q 2709 3584 3137 3096 
Q 3566 2609 3566 1747 
Q 3566 888 3137 398 
Q 2709 -91 1959 -91 
Q 1206 -91 779 398 
Q 353 888 353 1747 
Q 353 2609 779 3096 
Q 1206 3584 1959 3584 
z
M 2394 5119 
L 3016 5119 
L 1998 3944 
L 1519 3944 
L 2394 5119 
z
" transform="scale(0.015625)"/>
      <path id="DejaVuSans-d7" d="M 4488 3438 
L 3059 2003 
L 4488 575 
L 4116 197 
L 2681 1631 
L 1247 197 
L 878 575 
L 2303 2003 
L 878 3438 
L 1247 3816 
L 2681 2381 
L 4116 3816 
L 4488 3438 
z
" transform="scale(0.015625)"/>
      <path id="DejaVuSans-b3" d="M 1638 3500 
Q 1925 3444 2083 3273 
Q 2241 3103 2241 2847 
Q 2241 2459 1944 2250 
Q 1647 2041 1094 2041 
Q 916 2041 720 2073 
Q 525 2106 306 2169 
L 306 2547 
Q 469 2463 655 2422 
Q 841 2381 1050 2381 
Q 1391 2381 1578 2504 
Q 1766 2628 1766 2847 
Q 1766 3078 1592 3197 
Q 1419 3316 1081 3316 
L 813 3316 
L 813 3653 
L 1106 3653 
Q 1400 3653 1551 3751 
Q 1703 3850 1703 4038 
Q 1703 4219 1547 4314 
Q 1391 4409 1094 4409 
Q 969 4409 809 4381 
Q 650 4353 397 4281 
L 397 4641 
Q 625 4694 825 4722 
Q 1025 4750 1197 4750 
Q 1647 4750 1911 4565 
Q 2175 4381 2175 4072 
Q 2175 3856 2034 3706 
Q 1894 3556 1638 3500 
z
" transform="scale(0.015625)"/>
      <path id="DejaVuSans-6d" d="M 3328 2828 
Q 3544 3216 3844 3400 
Q 4144 3584 4550 3584 
Q 5097 3584 5394 3201 
Q 5691 2819 5691 2113 
L 5691 0 
L 5113 0 
L 5113 2094 
Q 5113 2597 4934 2840 
Q 4756 3084 4391 3084 
Q 3944 3084 3684 2787 
Q 3425 2491 3425 1978 
L 3425 0 
L 2847 0 
L 2847 2094 
Q 2847 2600 2669 2842 
Q 2491 3084 2119 3084 
Q 1678 3084 1418 2786 
Q 1159 2488 1159 1978 
L 1159 0 
L 581 0 
L 581 3500 
L 1159 3500 
L 1159 2956 
Q 1356 3278 1631 3431 
Q 1906 3584 2284 3584 
Q 2666 3584 2933 3390 
Q 3200 3197 3328 2828 
z
" transform="scale(0.015625)"/>
      <path id="DejaVuSans-207b" d="M 428 3359 
L 2950 3359 
L 2950 3063 
L 428 3063 
L 428 3359 
z
" transform="scale(0.015625)"/>
      <path id="DejaVuSans-b9" d="M 488 2431 
L 1125 2431 
L 1125 4341 
L 428 4213 
L 428 4575 
L 1147 4697 
L 1575 4697 
L 1575 2431 
L 2216 2431 
L 2216 2088 
L 488 2088 
L 488 2431 
z
" transform="scale(0.015625)"/>
     </defs>
     <use xlink:href="#DejaVuSans-43"/>
     <use xlink:href="#DejaVuSans-6f" transform="translate(69.824219 0)"/>
     <use xlink:href="#DejaVuSans-65" transform="translate(131.005859 0)"/>
     <use xlink:href="#DejaVuSans-66" transform="translate(192.529297 0)"/>
     <use xlink:href="#DejaVuSans-69" transform="translate(227.734375 0)"/>
     <use xlink:href="#DejaVuSans-63" transform="translate(255.517578 0)"/>
     <use xlink:href="#DejaVuSans-69" transform="translate(310.498047 0)"/>
     <use xlink:href="#DejaVuSans-65" transform="translate(338.28125 0)"/>
     <use xlink:href="#DejaVuSans-6e" transform="translate(399.804688 0)"/>
     <use xlink:href="#DejaVuSans-74" transform="translate(463.183594 0)"/>
     <use xlink:href="#DejaVuSans-65" transform="translate(502.392578 0)"/>
     <use xlink:href="#DejaVuSans-20" transform="translate(563.916016 0)"/>
     <use xlink:href="#DejaVuSans-64" transform="translate(595.703125 0)"/>
     <use xlink:href="#DejaVuSans-65" transform="translate(659.179688 0)"/>
     <use xlink:href="#DejaVuSans-20" transform="translate(720.703125 0)"/>
     <use xlink:href="#DejaVuSans-61" transform="translate(752.490234 0)"/>
     <use xlink:href="#DejaVuSans-62" transform="translate(813.769531 0)"/>
     <use xlink:href="#DejaVuSans-73" transform="translate(877.246094 0)"/>
     <use xlink:href="#DejaVuSans-6f" transform="translate(929.345703 0)"/>
     <use xlink:href="#DejaVuSans-72" transform="translate(990.527344 0)"/>
     <use xlink:href="#DejaVuSans-63" transform="translate(1029.390625 0)"/>
     <use xlink:href="#DejaVuSans-69" transform="translate(1084.371094 0)"/>
     <use xlink:href="#DejaVuSans-f3" transform="translate(1112.154297 0)"/>
     <use xlink:href="#DejaVuSans-6e" transform="translate(1173.335938 0)"/>
     <use xlink:href="#DejaVuSans-20" transform="translate(1236.714844 0)"/>
     <use xlink:href="#DejaVuSans-d7" transform="translate(1268.501953 0)"/>
     <use xlink:href="#DejaVuSans-20" transform="translate(1352.291016 0)"/>
     <use xlink:href="#DejaVuSans-31" transform="translate(1384.078125 0)"/>
     <use xlink:href="#DejaVuSans-30" transform="translate(1447.701172 0)"/>
     <use xlink:href="#DejaVuSans-b3" transform="translate(1511.324219 0)"/>
     <use xlink:href="#DejaVuSans-20" transform="translate(1551.412109 0)"/>
     <use xlink:href="#DejaVuSans-28" transform="translate(1583.199219 0)"/>
     <use xlink:href="#DejaVuSans-63" transform="translate(1622.212891 0)"/>
     <use xlink:href="#DejaVuSans-6d" transform="translate(1677.193359 0)"/>
     <use xlink:href="#DejaVuSans-207b" transform="translate(1774.605469 0)"/>
     <use xlink:href="#DejaVuSans-b9" transform="translate(1827.388672 0)"/>
     <use xlink:href="#DejaVuSans-29" transform="translate(1867.476562 0)"/>
    </g>
   </g>
  </g>
  <g id="axis3d_3">
   <g id="line2d_19">
    <path d="M 522.847852 524.407096 
L 511.64814 331.036889 
" style="fill: none; stroke: #000000; stroke-width: 0.8; stroke-linecap: square"/>
   </g>
   <g id="xtick_17">
    <g id="line2d_20">
     <path d="M 522.996954 510.951834 
L 520.515946 516.265919 
" style="fill: none; stroke: #000000; stroke-width: 0.8; stroke-linecap: square"/>
    </g>
    <g id="text_19">
     <!-- 0.0 -->
     <g transform="translate(497.958973 526.542818) scale(0.1 -0.1)">
      <use xlink:href="#DejaVuSans-30"/>
      <use xlink:href="#DejaVuSans-2e" transform="translate(63.623047 0)"/>
      <use xlink:href="#DejaVuSans-30" transform="translate(95.410156 0)"/>
     </g>
    </g>
   </g>
   <g id="xtick_18">
    <g id="line2d_21">
     <path d="M 521.353893 482.454726 
L 518.849765 487.756446 
" style="fill: none; stroke: #000000; stroke-width: 0.8; stroke-linecap: square"/>
    </g>
    <g id="text_20">
     <!-- 0.2 -->
     <g transform="translate(496.173647 498.027174) scale(0.1 -0.1)">
      <use xlink:href="#DejaVuSans-30"/>
      <use xlink:href="#DejaVuSans-2e" transform="translate(63.623047 0)"/>
      <use xlink:href="#DejaVuSans-32" transform="translate(95.410156 0)"/>
     </g>
    </g>
   </g>
   <g id="xtick_19">
    <g id="line2d_22">
     <path d="M 519.684254 453.496639 
L 517.156578 458.784895 
" style="fill: none; stroke: #000000; stroke-width: 0.8; stroke-linecap: square"/>
    </g>
    <g id="text_21">
     <!-- 0.4 -->
     <g transform="translate(494.359357 469.048899) scale(0.1 -0.1)">
      <use xlink:href="#DejaVuSans-30"/>
      <use xlink:href="#DejaVuSans-2e" transform="translate(63.623047 0)"/>
      <use xlink:href="#DejaVuSans-34" transform="translate(95.410156 0)"/>
     </g>
    </g>
   </g>
   <g id="xtick_20">
    <g id="line2d_23">
     <path d="M 517.987385 424.066296 
L 515.435725 429.33994 
" style="fill: none; stroke: #000000; stroke-width: 0.8; stroke-linecap: square"/>
    </g>
    <g id="text_22">
     <!-- 0.6 -->
     <g transform="translate(492.515392 439.596644) scale(0.1 -0.1)">
      <use xlink:href="#DejaVuSans-30"/>
      <use xlink:href="#DejaVuSans-2e" transform="translate(63.623047 0)"/>
      <use xlink:href="#DejaVuSans-36" transform="translate(95.410156 0)"/>
     </g>
    </g>
   </g>
   <g id="xtick_21">
    <g id="line2d_24">
     <path d="M 516.262616 394.152051 
L 513.68652 399.409884 
" style="fill: none; stroke: #000000; stroke-width: 0.8; stroke-linecap: square"/>
    </g>
    <g id="text_23">
     <!-- 0.8 -->
     <g transform="translate(490.641017 409.658682) scale(0.1 -0.1)">
      <defs>
       <path id="DejaVuSans-38" d="M 2034 2216 
Q 1584 2216 1326 1975 
Q 1069 1734 1069 1313 
Q 1069 891 1326 650 
Q 1584 409 2034 409 
Q 2484 409 2743 651 
Q 3003 894 3003 1313 
Q 3003 1734 2745 1975 
Q 2488 2216 2034 2216 
z
M 1403 2484 
Q 997 2584 770 2862 
Q 544 3141 544 3541 
Q 544 4100 942 4425 
Q 1341 4750 2034 4750 
Q 2731 4750 3128 4425 
Q 3525 4100 3525 3541 
Q 3525 3141 3298 2862 
Q 3072 2584 2669 2484 
Q 3125 2378 3379 2068 
Q 3634 1759 3634 1313 
Q 3634 634 3220 271 
Q 2806 -91 2034 -91 
Q 1263 -91 848 271 
Q 434 634 434 1313 
Q 434 1759 690 2068 
Q 947 2378 1403 2484 
z
M 1172 3481 
Q 1172 3119 1398 2916 
Q 1625 2713 2034 2713 
Q 2441 2713 2670 2916 
Q 2900 3119 2900 3481 
Q 2900 3844 2670 4047 
Q 2441 4250 2034 4250 
Q 1625 4250 1398 4047 
Q 1172 3844 1172 3481 
z
" transform="scale(0.015625)"/>
      </defs>
      <use xlink:href="#DejaVuSans-30"/>
      <use xlink:href="#DejaVuSans-2e" transform="translate(63.623047 0)"/>
      <use xlink:href="#DejaVuSans-38" transform="translate(95.410156 0)"/>
     </g>
    </g>
   </g>
   <g id="xtick_22">
    <g id="line2d_25">
     <path d="M 514.509253 363.741869 
L 511.908258 368.982638 
" style="fill: none; stroke: #000000; stroke-width: 0.8; stroke-linecap: square"/>
    </g>
    <g id="text_24">
     <!-- 1.0 -->
     <g transform="translate(488.735475 379.222899) scale(0.1 -0.1)">
      <use xlink:href="#DejaVuSans-31"/>
      <use xlink:href="#DejaVuSans-2e" transform="translate(63.623047 0)"/>
      <use xlink:href="#DejaVuSans-30" transform="translate(95.410156 0)"/>
     </g>
    </g>
   </g>
   <g id="xtick_23">
    <g id="line2d_26">
     <path d="M 512.726578 332.823314 
L 510.100209 338.04571 
" style="fill: none; stroke: #000000; stroke-width: 0.8; stroke-linecap: square"/>
    </g>
    <g id="text_25">
     <!-- 1.2 -->
     <g transform="translate(486.79798 348.276775) scale(0.1 -0.1)">
      <use xlink:href="#DejaVuSans-31"/>
      <use xlink:href="#DejaVuSans-2e" transform="translate(63.623047 0)"/>
      <use xlink:href="#DejaVuSans-32" transform="translate(95.410156 0)"/>
     </g>
    </g>
   </g>
   <g id="text_26">
    <!-- Desacople reticular -->
    <g transform="translate(475.548823 395.574973) rotate(-273.314782) scale(0.1 -0.1)">
     <defs>
      <path id="DejaVuSans-44" d="M 1259 4147 
L 1259 519 
L 2022 519 
Q 2988 519 3436 956 
Q 3884 1394 3884 2338 
Q 3884 3275 3436 3711 
Q 2988 4147 2022 4147 
L 1259 4147 
z
M 628 4666 
L 1925 4666 
Q 3281 4666 3915 4102 
Q 4550 3538 4550 2338 
Q 4550 1131 3912 565 
Q 3275 0 1925 0 
L 628 0 
L 628 4666 
z
" transform="scale(0.015625)"/>
      <path id="DejaVuSans-6c" d="M 603 4863 
L 1178 4863 
L 1178 0 
L 603 0 
L 603 4863 
z
" transform="scale(0.015625)"/>
      <path id="DejaVuSans-75" d="M 544 1381 
L 544 3500 
L 1119 3500 
L 1119 1403 
Q 1119 906 1312 657 
Q 1506 409 1894 409 
Q 2359 409 2629 706 
Q 2900 1003 2900 1516 
L 2900 3500 
L 3475 3500 
L 3475 0 
L 2900 0 
L 2900 538 
Q 2691 219 2414 64 
Q 2138 -91 1772 -91 
Q 1169 -91 856 284 
Q 544 659 544 1381 
z
M 1991 3584 
L 1991 3584 
z
" transform="scale(0.015625)"/>
     </defs>
     <use xlink:href="#DejaVuSans-44"/>
     <use xlink:href="#DejaVuSans-65" transform="translate(77.001953 0)"/>
     <use xlink:href="#DejaVuSans-73" transform="translate(138.525391 0)"/>
     <use xlink:href="#DejaVuSans-61" transform="translate(190.625 0)"/>
     <use xlink:href="#DejaVuSans-63" transform="translate(251.904297 0)"/>
     <use xlink:href="#DejaVuSans-6f" transform="translate(306.884766 0)"/>
     <use xlink:href="#DejaVuSans-70" transform="translate(368.066406 0)"/>
     <use xlink:href="#DejaVuSans-6c" transform="translate(431.542969 0)"/>
     <use xlink:href="#DejaVuSans-65" transform="translate(459.326172 0)"/>
     <use xlink:href="#DejaVuSans-20" transform="translate(520.849609 0)"/>
     <use xlink:href="#DejaVuSans-72" transform="translate(552.636719 0)"/>
     <use xlink:href="#DejaVuSans-65" transform="translate(591.5 0)"/>
     <use xlink:href="#DejaVuSans-74" transform="translate(653.023438 0)"/>
     <use xlink:href="#DejaVuSans-69" transform="translate(692.232422 0)"/>
     <use xlink:href="#DejaVuSans-63" transform="translate(720.015625 0)"/>
     <use xlink:href="#DejaVuSans-75" transform="translate(774.996094 0)"/>
     <use xlink:href="#DejaVuSans-6c" transform="translate(838.375 0)"/>
     <use xlink:href="#DejaVuSans-61" transform="translate(866.158203 0)"/>
     <use xlink:href="#DejaVuSans-72" transform="translate(927.4375 0)"/>
    </g>
   </g>
  </g>
  <g id="axes_1">
   <g id="Path3DCollection_1">
    <defs>
     <path id="C0_0_988b09ce3c" d="M 0 3.535534 
C 0.937635 3.535534 1.836992 3.163008 2.5 2.5 
C 3.163008 1.836992 3.535534 0.937635 3.535534 -0 
C 3.535534 -0.937635 3.163008 -1.836992 2.5 -2.5 
C 1.836992 -3.163008 0.937635 -3.535534 0 -3.535534 
C -0.937635 -3.535534 -1.836992 -3.163008 -2.5 -2.5 
C -3.163008 -1.836992 -3.535534 -0.937635 -3.535534 0 
C -3.535534 0.937635 -3.163008 1.836992 -2.5 2.5 
C -1.836992 3.163008 -0.937635 3.535534 0 3.535534 
z
"/>
    </defs>
    <g clip-path="url(#p6194bef459)">
     <use xlink:href="#C0_0_988b09ce3c" x="751.846436" y="352.821698" style="fill: #0000ff; stroke: #0000ff"/>
    </g>
    <g clip-path="url(#p6194bef459)">
     <use xlink:href="#C0_0_988b09ce3c" x="658.393079" y="256.610535" style="fill: #0000ff; stroke: #0000ff"/>
    </g>
    <g clip-path="url(#p6194bef459)">
     <use xlink:href="#C0_0_988b09ce3c" x="652.487695" y="256.920204" style="fill: #0000ff; stroke: #0000ff"/>
    </g>
    <g clip-path="url(#p6194bef459)">
     <use xlink:href="#C0_0_988b09ce3c" x="648.78438" y="245.395064" style="fill: #0000ff; stroke: #0000ff"/>
    </g>
    <g clip-path="url(#p6194bef459)">
     <use xlink:href="#C0_0_988b09ce3c" x="617.823165" y="378.22059" style="fill: #0000ff; stroke: #0000ff"/>
    </g>
    <g clip-path="url(#p6194bef459)">
     <use xlink:href="#C0_0_988b09ce3c" x="661.352217" y="234.459714" style="fill: #0000ff; stroke: #0000ff"/>
    </g>
    <g clip-path="url(#p6194bef459)">
     <use xlink:href="#C0_0_988b09ce3c" x="744.409384" y="354.602648" style="fill: #0000ff; stroke: #0000ff"/>
    </g>
    <g clip-path="url(#p6194bef459)">
     <use xlink:href="#C0_0_988b09ce3c" x="643.720051" y="280.513772" style="fill: #0000ff; stroke: #0000ff"/>
    </g>
    <g clip-path="url(#p6194bef459)">
     <use xlink:href="#C0_0_988b09ce3c" x="653.81037" y="272.14901" style="fill: #0000ff; stroke: #0000ff"/>
    </g>
    <g clip-path="url(#p6194bef459)">
     <use xlink:href="#C0_0_988b09ce3c" x="618.927134" y="313.404959" style="fill: #0000ff; stroke: #0000ff"/>
    </g>
    <g clip-path="url(#p6194bef459)">
     <use xlink:href="#C0_0_988b09ce3c" x="626.997159" y="195.342596" style="fill: #0000ff; stroke: #0000ff"/>
    </g>
    <g clip-path="url(#p6194bef459)">
     <use xlink:href="#C0_0_988b09ce3c" x="880.684043" y="418.211247" style="fill: #0000ff; stroke: #0000ff"/>
    </g>
    <g clip-path="url(#p6194bef459)">
     <use xlink:href="#C0_0_988b09ce3c" x="771.943824" y="270.028113" style="fill: #0000ff; stroke: #0000ff"/>
    </g>
    <g clip-path="url(#p6194bef459)">
     <use xlink:href="#C0_0_988b09ce3c" x="625.702647" y="208.364879" style="fill: #0000ff; stroke: #0000ff"/>
    </g>
    <g clip-path="url(#p6194bef459)">
     <use xlink:href="#C0_0_988b09ce3c" x="660.423157" y="192.802909" style="fill: #0000ff; stroke: #0000ff"/>
    </g>
    <g clip-path="url(#p6194bef459)">
     <use xlink:href="#C0_0_988b09ce3c" x="626.320197" y="282.408378" style="fill: #0000ff; stroke: #0000ff"/>
    </g>
    <g clip-path="url(#p6194bef459)">
     <use xlink:href="#C0_0_988b09ce3c" x="632.235072" y="179.214679" style="fill: #0000ff; stroke: #0000ff"/>
    </g>
    <g clip-path="url(#p6194bef459)">
     <use xlink:href="#C0_0_988b09ce3c" x="622.804159" y="337.798777" style="fill: #0000ff; stroke: #0000ff"/>
    </g>
    <g clip-path="url(#p6194bef459)">
     <use xlink:href="#C0_0_988b09ce3c" x="646.514457" y="208.795827" style="fill: #0000ff; stroke: #0000ff"/>
    </g>
    <g clip-path="url(#p6194bef459)">
     <use xlink:href="#C0_0_988b09ce3c" x="654.054921" y="196.1585" style="fill: #0000ff; stroke: #0000ff"/>
    </g>
    <g clip-path="url(#p6194bef459)">
     <use xlink:href="#C0_0_988b09ce3c" x="625.088435" y="354.786807" style="fill: #0000ff; stroke: #0000ff"/>
    </g>
    <g clip-path="url(#p6194bef459)">
     <use xlink:href="#C0_0_988b09ce3c" x="632.057331" y="337.914962" style="fill: #0000ff; stroke: #0000ff"/>
    </g>
    <g clip-path="url(#p6194bef459)">
     <use xlink:href="#C0_0_988b09ce3c" x="611.512577" y="314.318383" style="fill: #0000ff; stroke: #0000ff"/>
    </g>
    <g clip-path="url(#p6194bef459)">
     <use xlink:href="#C0_0_988b09ce3c" x="650.97065" y="266.032757" style="fill: #0000ff; stroke: #0000ff"/>
    </g>
    <g clip-path="url(#p6194bef459)">
     <use xlink:href="#C0_0_988b09ce3c" x="804.811602" y="238.767221" style="fill: #0000ff; stroke: #0000ff"/>
    </g>
    <g clip-path="url(#p6194bef459)">
     <use xlink:href="#C0_0_988b09ce3c" x="601.182931" y="428.800265" style="fill: #0000ff; stroke: #0000ff"/>
    </g>
    <g clip-path="url(#p6194bef459)">
     <use xlink:href="#C0_0_988b09ce3c" x="627.353717" y="297.644654" style="fill: #0000ff; stroke: #0000ff"/>
    </g>
    <g clip-path="url(#p6194bef459)">
     <use xlink:href="#C0_0_988b09ce3c" x="627.852842" y="310.116374" style="fill: #0000ff; stroke: #0000ff"/>
    </g>
    <g clip-path="url(#p6194bef459)">
     <use xlink:href="#C0_0_988b09ce3c" x="654.266662" y="191.641933" style="fill: #0000ff; stroke: #0000ff"/>
    </g>
    <g clip-path="url(#p6194bef459)">
     <use xlink:href="#C0_0_988b09ce3c" x="629.742313" y="185.155063" style="fill: #0000ff; stroke: #0000ff"/>
    </g>
    <g clip-path="url(#p6194bef459)">
     <use xlink:href="#C0_0_988b09ce3c" x="611.95419" y="267.333126" style="fill: #0000ff; stroke: #0000ff"/>
    </g>
    <g clip-path="url(#p6194bef459)">
     <use xlink:href="#C0_0_988b09ce3c" x="612.170734" y="348.129777" style="fill: #0000ff; stroke: #0000ff"/>
    </g>
    <g clip-path="url(#p6194bef459)">
     <use xlink:href="#C0_0_988b09ce3c" x="588.560035" y="383.905004" style="fill: #0000ff; stroke: #0000ff"/>
    </g>
    <g clip-path="url(#p6194bef459)">
     <use xlink:href="#C0_0_988b09ce3c" x="663.776978" y="272.981468" style="fill: #0000ff; stroke: #0000ff"/>
    </g>
    <g clip-path="url(#p6194bef459)">
     <use xlink:href="#C0_0_988b09ce3c" x="630.173775" y="309.310673" style="fill: #0000ff; stroke: #0000ff"/>
    </g>
    <g clip-path="url(#p6194bef459)">
     <use xlink:href="#C0_0_988b09ce3c" x="623.4452" y="180.51317" style="fill: #0000ff; stroke: #0000ff"/>
    </g>
    <g clip-path="url(#p6194bef459)">
     <use xlink:href="#C0_0_988b09ce3c" x="620.588538" y="296.900715" style="fill: #0000ff; stroke: #0000ff"/>
    </g>
    <g clip-path="url(#p6194bef459)">
     <use xlink:href="#C0_0_988b09ce3c" x="615.985237" y="374.303021" style="fill: #0000ff; stroke: #0000ff"/>
    </g>
    <g clip-path="url(#p6194bef459)">
     <use xlink:href="#C0_0_988b09ce3c" x="616.360241" y="346.231725" style="fill: #0000ff; stroke: #0000ff"/>
    </g>
    <g clip-path="url(#p6194bef459)">
     <use xlink:href="#C0_0_988b09ce3c" x="664.228983" y="215.809736" style="fill: #0000ff; stroke: #0000ff"/>
    </g>
    <g clip-path="url(#p6194bef459)">
     <use xlink:href="#C0_0_988b09ce3c" x="619.871578" y="335.68196" style="fill: #0000ff; stroke: #0000ff"/>
    </g>
    <g clip-path="url(#p6194bef459)">
     <use xlink:href="#C0_0_988b09ce3c" x="608.34489" y="221.761722" style="fill: #0000ff; stroke: #0000ff"/>
    </g>
    <g clip-path="url(#p6194bef459)">
     <use xlink:href="#C0_0_988b09ce3c" x="634.2636" y="212.180603" style="fill: #0000ff; stroke: #0000ff"/>
    </g>
    <g clip-path="url(#p6194bef459)">
     <use xlink:href="#C0_0_988b09ce3c" x="583.736987" y="365.22612" style="fill: #0000ff; stroke: #0000ff"/>
    </g>
    <g clip-path="url(#p6194bef459)">
     <use xlink:href="#C0_0_988b09ce3c" x="630.738061" y="295.430914" style="fill: #0000ff; stroke: #0000ff"/>
    </g>
    <g clip-path="url(#p6194bef459)">
     <use xlink:href="#C0_0_988b09ce3c" x="838.926031" y="215.970835" style="fill: #0000ff; stroke: #0000ff"/>
    </g>
    <g clip-path="url(#p6194bef459)">
     <use xlink:href="#C0_0_988b09ce3c" x="594.788796" y="357.021887" style="fill: #0000ff; stroke: #0000ff"/>
    </g>
    <g clip-path="url(#p6194bef459)">
     <use xlink:href="#C0_0_988b09ce3c" x="593.125363" y="307.867305" style="fill: #0000ff; stroke: #0000ff"/>
    </g>
    <g clip-path="url(#p6194bef459)">
     <use xlink:href="#C0_0_988b09ce3c" x="625.267265" y="293.122517" style="fill: #0000ff; stroke: #0000ff"/>
    </g>
    <g clip-path="url(#p6194bef459)">
     <use xlink:href="#C0_0_988b09ce3c" x="591.446711" y="319.540762" style="fill: #0000ff; stroke: #0000ff"/>
    </g>
    <g clip-path="url(#p6194bef459)">
     <use xlink:href="#C0_0_988b09ce3c" x="580.898305" y="354.591196" style="fill: #0000ff; stroke: #0000ff"/>
    </g>
    <g clip-path="url(#p6194bef459)">
     <use xlink:href="#C0_0_988b09ce3c" x="564.929713" y="469.775794" style="fill: #0000ff; stroke: #0000ff"/>
    </g>
    <g clip-path="url(#p6194bef459)">
     <use xlink:href="#C0_0_988b09ce3c" x="605.617932" y="340.811676" style="fill: #0000ff; stroke: #0000ff"/>
    </g>
    <g clip-path="url(#p6194bef459)">
     <use xlink:href="#C0_0_988b09ce3c" x="585.011687" y="374.10016" style="fill: #0000ff; stroke: #0000ff"/>
    </g>
    <g clip-path="url(#p6194bef459)">
     <use xlink:href="#C0_0_988b09ce3c" x="703.634448" y="248.920251" style="fill: #0000ff; stroke: #0000ff"/>
    </g>
    <g clip-path="url(#p6194bef459)">
     <use xlink:href="#C0_0_988b09ce3c" x="585.481685" y="342.350985" style="fill: #0000ff; stroke: #0000ff"/>
    </g>
    <g clip-path="url(#p6194bef459)">
     <use xlink:href="#C0_0_988b09ce3c" x="607.748275" y="316.051245" style="fill: #0000ff; stroke: #0000ff"/>
    </g>
    <g clip-path="url(#p6194bef459)">
     <use xlink:href="#C0_0_988b09ce3c" x="753.280487" y="213.993388" style="fill: #0000ff; stroke: #0000ff"/>
    </g>
    <g clip-path="url(#p6194bef459)">
     <use xlink:href="#C0_0_988b09ce3c" x="584.336711" y="357.3453" style="fill: #0000ff; stroke: #0000ff"/>
    </g>
    <g clip-path="url(#p6194bef459)">
     <use xlink:href="#C0_0_988b09ce3c" x="650.075704" y="208.210687" style="fill: #0000ff; stroke: #0000ff"/>
    </g>
    <g clip-path="url(#p6194bef459)">
     <use xlink:href="#C0_0_988b09ce3c" x="598.15953" y="234.321752" style="fill: #0000ff; stroke: #0000ff"/>
    </g>
    <g clip-path="url(#p6194bef459)">
     <use xlink:href="#C0_0_988b09ce3c" x="600.215759" y="270.612838" style="fill: #0000ff; stroke: #0000ff"/>
    </g>
    <g clip-path="url(#p6194bef459)">
     <use xlink:href="#C0_0_988b09ce3c" x="630.520727" y="217.513999" style="fill: #0000ff; stroke: #0000ff"/>
    </g>
    <g clip-path="url(#p6194bef459)">
     <use xlink:href="#C0_0_988b09ce3c" x="592.506049" y="357.988533" style="fill: #0000ff; stroke: #0000ff"/>
    </g>
    <g clip-path="url(#p6194bef459)">
     <use xlink:href="#C0_0_988b09ce3c" x="561.925533" y="435.160886" style="fill: #0000ff; stroke: #0000ff"/>
    </g>
    <g clip-path="url(#p6194bef459)">
     <use xlink:href="#C0_0_988b09ce3c" x="579.061425" y="367.871378" style="fill: #0000ff; stroke: #0000ff"/>
    </g>
    <g clip-path="url(#p6194bef459)">
     <use xlink:href="#C0_0_988b09ce3c" x="570.836649" y="372.251457" style="fill: #0000ff; stroke: #0000ff"/>
    </g>
    <g clip-path="url(#p6194bef459)">
     <use xlink:href="#C0_0_988b09ce3c" x="575.165285" y="343.80338" style="fill: #0000ff; stroke: #0000ff"/>
    </g>
    <g clip-path="url(#p6194bef459)">
     <use xlink:href="#C0_0_988b09ce3c" x="863.812937" y="249.177974" style="fill: #0000ff; stroke: #0000ff"/>
    </g>
    <g clip-path="url(#p6194bef459)">
     <use xlink:href="#C0_0_988b09ce3c" x="597.161247" y="252.630891" style="fill: #0000ff; stroke: #0000ff"/>
    </g>
    <g clip-path="url(#p6194bef459)">
     <use xlink:href="#C0_0_988b09ce3c" x="570.386369" y="375.503632" style="fill: #0000ff; stroke: #0000ff"/>
    </g>
    <g clip-path="url(#p6194bef459)">
     <use xlink:href="#C0_0_988b09ce3c" x="570.42036" y="362.890204" style="fill: #0000ff; stroke: #0000ff"/>
    </g>
    <g clip-path="url(#p6194bef459)">
     <use xlink:href="#C0_0_988b09ce3c" x="560.564973" y="402.985796" style="fill: #0000ff; stroke: #0000ff"/>
    </g>
    <g clip-path="url(#p6194bef459)">
     <use xlink:href="#C0_0_988b09ce3c" x="591.201911" y="309.046236" style="fill: #0000ff; stroke: #0000ff"/>
    </g>
    <g clip-path="url(#p6194bef459)">
     <use xlink:href="#C0_0_988b09ce3c" x="570.656292" y="365.929852" style="fill: #0000ff; stroke: #0000ff"/>
    </g>
    <g clip-path="url(#p6194bef459)">
     <use xlink:href="#C0_0_988b09ce3c" x="581.862437" y="315.408805" style="fill: #0000ff; stroke: #0000ff"/>
    </g>
    <g clip-path="url(#p6194bef459)">
     <use xlink:href="#C0_0_988b09ce3c" x="551.740397" y="411.242994" style="fill: #0000ff; stroke: #0000ff"/>
    </g>
    <g clip-path="url(#p6194bef459)">
     <use xlink:href="#C0_0_988b09ce3c" x="557.902736" y="381.474887" style="fill: #0000ff; stroke: #0000ff"/>
    </g>
    <g clip-path="url(#p6194bef459)">
     <use xlink:href="#C0_0_988b09ce3c" x="560.002964" y="358.634442" style="fill: #0000ff; stroke: #0000ff"/>
    </g>
    <g clip-path="url(#p6194bef459)">
     <use xlink:href="#C0_0_988b09ce3c" x="552.093666" y="397.665439" style="fill: #0000ff; stroke: #0000ff"/>
    </g>
    <g clip-path="url(#p6194bef459)">
     <use xlink:href="#C0_0_988b09ce3c" x="555.510051" y="369.017452" style="fill: #0000ff; stroke: #0000ff"/>
    </g>
    <g clip-path="url(#p6194bef459)">
     <use xlink:href="#C0_0_988b09ce3c" x="549.628153" y="403.948799" style="fill: #0000ff; stroke: #0000ff"/>
    </g>
    <g clip-path="url(#p6194bef459)">
     <use xlink:href="#C0_0_988b09ce3c" x="545.865689" y="408.499537" style="fill: #0000ff; stroke: #0000ff"/>
    </g>
    <g clip-path="url(#p6194bef459)">
     <use xlink:href="#C0_0_988b09ce3c" x="547.736501" y="387.656457" style="fill: #0000ff; stroke: #0000ff"/>
    </g>
    <g clip-path="url(#p6194bef459)">
     <use xlink:href="#C0_0_988b09ce3c" x="545.725253" y="360.264849" style="fill: #0000ff; stroke: #0000ff"/>
    </g>
   </g>
  </g>
 </g>
 <defs>
  <clipPath id="p6194bef459">
   <rect x="432" y="72" width="576" height="576"/>
  </clipPath>
 </defs>
</svg>
