<?xml version="1.0" encoding="utf-8" standalone="no"?>
<!DOCTYPE svg PUBLIC "-//W3C//DTD SVG 1.1//EN"
  "http://www.w3.org/Graphics/SVG/1.1/DTD/svg11.dtd">
<svg xmlns:xlink="http://www.w3.org/1999/xlink" width="1440pt" height="720pt" viewBox="0 0 1440 720" xmlns="http://www.w3.org/2000/svg" version="1.1">
 <metadata>
  <rdf:RDF xmlns:dc="http://purl.org/dc/elements/1.1/" xmlns:cc="http://creativecommons.org/ns#" xmlns:rdf="http://www.w3.org/1999/02/22-rdf-syntax-ns#">
   <cc:Work>
    <dc:type rdf:resource="http://purl.org/dc/dcmitype/StillImage"/>
    <dc:date>2025-06-07T04:42:08.046777</dc:date>
    <dc:format>image/svg+xml</dc:format>
    <dc:creator>
     <cc:Agent>
      <dc:title>Matplotlib v3.10.1, https://matplotlib.org/</dc:title>
     </cc:Agent>
    </dc:creator>
   </cc:Work>
  </rdf:RDF>
 </metadata>
 <defs>
  <style type="text/css">*{stroke-linejoin: round; stroke-linecap: butt}</style>
 </defs>
 <g id="figure_1">
  <g id="patch_1">
   <path d="M 0 720 
L 1440 720 
L 1440 0 
L 0 0 
z
" style="fill: #ffffff"/>
  </g>
  <g id="patch_2">
   <path d="M 432 648 
L 1008 648 
L 1008 72 
L 432 72 
z
" style="fill: #ffffff"/>
  </g>
  <g id="pane3d_1">
   <g id="patch_3">
    <path d="M 727.783784 300.739238 
L 957.729412 445.633103 
L 969.921575 253.846185 
L 727.783784 112.485055 
" style="fill: #add8e6; opacity: 0.5; stroke: #f2f2f2; stroke-linejoin: miter"/>
   </g>
  </g>
  <g id="pane3d_2">
   <g id="patch_4">
    <path d="M 727.783784 300.739238 
L 497.838155 445.633103 
L 485.645993 253.846185 
L 727.783784 112.485055 
" style="fill: #add8e6; opacity: 0.5; stroke: #e6e6e6; stroke-linejoin: miter"/>
   </g>
  </g>
  <g id="pane3d_3">
   <g id="patch_5">
    <path d="M 727.783784 300.739238 
L 497.838155 445.633103 
L 727.783784 607.905025 
L 957.729412 445.633103 
" style="fill: #add8e6; opacity: 0.5; stroke: #ececec; stroke-linejoin: miter"/>
   </g>
  </g>
  <g id="grid3d_1">
   <g id="Line3DCollection_1">
    <path d="M 956.675043 446.377168 
L 726.726044 301.405743 
L 726.6731 113.133477 
" style="fill: none; stroke: #ffffff; stroke-width: 0.5"/>
    <path d="M 930.988212 464.504285 
L 700.966731 317.637261 
L 699.615485 128.929834 
" style="fill: none; stroke: #ffffff; stroke-width: 0.5"/>
    <path d="M 904.955007 482.875838 
L 674.878906 334.07578 
L 672.195298 144.937862 
" style="fill: none; stroke: #ffffff; stroke-width: 0.5"/>
    <path d="M 878.568374 501.496804 
L 648.456246 350.725287 
L 644.405203 161.161845 
" style="fill: none; stroke: #ffffff; stroke-width: 0.5"/>
    <path d="M 851.821066 520.372296 
L 621.692264 367.589869 
L 616.237664 177.606181 
" style="fill: none; stroke: #ffffff; stroke-width: 0.5"/>
    <path d="M 824.705638 539.507571 
L 594.580301 384.673721 
L 587.684938 194.275391 
" style="fill: none; stroke: #ffffff; stroke-width: 0.5"/>
    <path d="M 797.214437 558.908027 
L 567.113528 401.981147 
L 558.73907 211.174118 
" style="fill: none; stroke: #ffffff; stroke-width: 0.5"/>
    <path d="M 769.339598 578.579215 
L 539.284933 419.516565 
L 529.391884 228.307138 
" style="fill: none; stroke: #ffffff; stroke-width: 0.5"/>
    <path d="M 741.073032 598.526843 
L 511.087319 437.28451 
L 499.634975 245.679355 
" style="fill: none; stroke: #ffffff; stroke-width: 0.5"/>
   </g>
  </g>
  <g id="grid3d_2">
   <g id="Line3DCollection_2">
    <path d="M 741.882492 120.715944 
L 741.208385 309.198378 
L 511.222288 455.078244 
" style="fill: none; stroke: #ffffff; stroke-width: 0.5"/>
    <path d="M 773.461439 139.151875 
L 771.261339 328.135414 
L 541.202792 476.235394 
" style="fill: none; stroke: #ffffff; stroke-width: 0.5"/>
    <path d="M 805.53322 157.875525 
L 801.760553 347.353648 
L 571.654152 497.724824 
" style="fill: none; stroke: #ffffff; stroke-width: 0.5"/>
    <path d="M 838.109461 176.893681 
L 832.716041 366.859391 
L 602.587547 519.554426 
" style="fill: none; stroke: #ffffff; stroke-width: 0.5"/>
    <path d="M 871.202161 196.213348 
L 864.138119 386.659143 
L 634.014515 541.732341 
" style="fill: none; stroke: #ffffff; stroke-width: 0.5"/>
    <path d="M 904.823699 215.841753 
L 896.037418 406.759602 
L 665.946964 564.266972 
" style="fill: none; stroke: #ffffff; stroke-width: 0.5"/>
    <path d="M 938.986853 235.786356 
L 928.42489 427.167671 
L 698.397189 587.166995 
" style="fill: none; stroke: #ffffff; stroke-width: 0.5"/>
   </g>
  </g>
  <g id="grid3d_3">
   <g id="Line3DCollection_3">
    <path d="M 497.100262 434.025793 
L 727.783784 289.315351 
L 958.467305 434.025793 
" style="fill: none; stroke: #ffffff; stroke-width: 0.5"/>
    <path d="M 495.301202 405.725951 
L 727.783784 261.479159 
L 960.266366 405.725951 
" style="fill: none; stroke: #ffffff; stroke-width: 0.5"/>
    <path d="M 493.47386 376.981229 
L 727.783784 233.229227 
L 962.093708 376.981229 
" style="fill: none; stroke: #ffffff; stroke-width: 0.5"/>
    <path d="M 491.617564 347.781053 
L 727.783784 204.556262 
L 963.950004 347.781053 
" style="fill: none; stroke: #ffffff; stroke-width: 0.5"/>
    <path d="M 489.73162 318.114511 
L 727.783784 175.45069 
L 965.835947 318.114511 
" style="fill: none; stroke: #ffffff; stroke-width: 0.5"/>
    <path d="M 487.815313 287.970341 
L 727.783784 145.902645 
L 967.752254 287.970341 
" style="fill: none; stroke: #ffffff; stroke-width: 0.5"/>
    <path d="M 485.867904 257.336915 
L 727.783784 115.90196 
L 969.699664 257.336915 
" style="fill: none; stroke: #ffffff; stroke-width: 0.5"/>
   </g>
  </g>
  <g id="axis3d_1">
   <g id="line2d_1">
    <path d="M 957.729412 445.633103 
L 727.783784 607.905025 
" style="fill: none; stroke: #000000; stroke-width: 0.8; stroke-linecap: square"/>
   </g>
   <g id="xtick_1">
    <g id="line2d_2">
     <path d="M 954.732226 445.152318 
L 960.565959 448.830197 
" style="fill: none; stroke: #000000; stroke-width: 0.8; stroke-linecap: square"/>
    </g>
    <g id="text_1">
     <!-- 1.00 -->
     <g transform="translate(954.415974 466.832536) scale(0.1 -0.1)">
      <defs>
       <path id="DejaVuSans-31" d="M 794 531 
L 1825 531 
L 1825 4091 
L 703 3866 
L 703 4441 
L 1819 4666 
L 2450 4666 
L 2450 531 
L 3481 531 
L 3481 0 
L 794 0 
L 794 531 
z
" transform="scale(0.015625)"/>
       <path id="DejaVuSans-2e" d="M 684 794 
L 1344 794 
L 1344 0 
L 684 0 
L 684 794 
z
" transform="scale(0.015625)"/>
       <path id="DejaVuSans-30" d="M 2034 4250 
Q 1547 4250 1301 3770 
Q 1056 3291 1056 2328 
Q 1056 1369 1301 889 
Q 1547 409 2034 409 
Q 2525 409 2770 889 
Q 3016 1369 3016 2328 
Q 3016 3291 2770 3770 
Q 2525 4250 2034 4250 
z
M 2034 4750 
Q 2819 4750 3233 4129 
Q 3647 3509 3647 2328 
Q 3647 1150 3233 529 
Q 2819 -91 2034 -91 
Q 1250 -91 836 529 
Q 422 1150 422 2328 
Q 422 3509 836 4129 
Q 1250 4750 2034 4750 
z
" transform="scale(0.015625)"/>
      </defs>
      <use xlink:href="#DejaVuSans-31"/>
      <use xlink:href="#DejaVuSans-2e" transform="translate(63.623047 0)"/>
      <use xlink:href="#DejaVuSans-30" transform="translate(95.410156 0)"/>
      <use xlink:href="#DejaVuSans-30" transform="translate(159.033203 0)"/>
     </g>
    </g>
   </g>
   <g id="xtick_2">
    <g id="line2d_3">
     <path d="M 929.044092 463.262979 
L 934.881775 466.990296 
" style="fill: none; stroke: #000000; stroke-width: 0.8; stroke-linecap: square"/>
    </g>
    <g id="text_2">
     <!-- 1.25 -->
     <g transform="translate(928.782414 485.050134) scale(0.1 -0.1)">
      <defs>
       <path id="DejaVuSans-32" d="M 1228 531 
L 3431 531 
L 3431 0 
L 469 0 
L 469 531 
Q 828 903 1448 1529 
Q 2069 2156 2228 2338 
Q 2531 2678 2651 2914 
Q 2772 3150 2772 3378 
Q 2772 3750 2511 3984 
Q 2250 4219 1831 4219 
Q 1534 4219 1204 4116 
Q 875 4013 500 3803 
L 500 4441 
Q 881 4594 1212 4672 
Q 1544 4750 1819 4750 
Q 2544 4750 2975 4387 
Q 3406 4025 3406 3419 
Q 3406 3131 3298 2873 
Q 3191 2616 2906 2266 
Q 2828 2175 2409 1742 
Q 1991 1309 1228 531 
z
" transform="scale(0.015625)"/>
       <path id="DejaVuSans-35" d="M 691 4666 
L 3169 4666 
L 3169 4134 
L 1269 4134 
L 1269 2991 
Q 1406 3038 1543 3061 
Q 1681 3084 1819 3084 
Q 2600 3084 3056 2656 
Q 3513 2228 3513 1497 
Q 3513 744 3044 326 
Q 2575 -91 1722 -91 
Q 1428 -91 1123 -41 
Q 819 9 494 109 
L 494 744 
Q 775 591 1075 516 
Q 1375 441 1709 441 
Q 2250 441 2565 725 
Q 2881 1009 2881 1497 
Q 2881 1984 2565 2268 
Q 2250 2553 1709 2553 
Q 1456 2553 1204 2497 
Q 953 2441 691 2322 
L 691 4666 
z
" transform="scale(0.015625)"/>
      </defs>
      <use xlink:href="#DejaVuSans-31"/>
      <use xlink:href="#DejaVuSans-2e" transform="translate(63.623047 0)"/>
      <use xlink:href="#DejaVuSans-32" transform="translate(95.410156 0)"/>
      <use xlink:href="#DejaVuSans-35" transform="translate(159.033203 0)"/>
     </g>
    </g>
   </g>
   <g id="xtick_3">
    <g id="line2d_4">
     <path d="M 903.009725 481.61774 
L 908.850933 485.3955 
" style="fill: none; stroke: #000000; stroke-width: 0.8; stroke-linecap: square"/>
    </g>
    <g id="text_3">
     <!-- 1.50 -->
     <g transform="translate(902.803114 503.513446) scale(0.1 -0.1)">
      <use xlink:href="#DejaVuSans-31"/>
      <use xlink:href="#DejaVuSans-2e" transform="translate(63.623047 0)"/>
      <use xlink:href="#DejaVuSans-35" transform="translate(95.410156 0)"/>
      <use xlink:href="#DejaVuSans-30" transform="translate(159.033203 0)"/>
     </g>
    </g>
   </g>
   <g id="xtick_4">
    <g id="line2d_5">
     <path d="M 876.622077 500.221572 
L 882.466369 504.050805 
" style="fill: none; stroke: #000000; stroke-width: 0.8; stroke-linecap: square"/>
    </g>
    <g id="text_4">
     <!-- 1.75 -->
     <g transform="translate(876.471032 522.227479) scale(0.1 -0.1)">
      <defs>
       <path id="DejaVuSans-37" d="M 525 4666 
L 3525 4666 
L 3525 4397 
L 1831 0 
L 1172 0 
L 2766 4134 
L 525 4134 
L 525 4666 
z
" transform="scale(0.015625)"/>
      </defs>
      <use xlink:href="#DejaVuSans-31"/>
      <use xlink:href="#DejaVuSans-2e" transform="translate(63.623047 0)"/>
      <use xlink:href="#DejaVuSans-37" transform="translate(95.410156 0)"/>
      <use xlink:href="#DejaVuSans-35" transform="translate(159.033203 0)"/>
     </g>
    </g>
   </g>
   <g id="xtick_5">
    <g id="line2d_6">
     <path d="M 849.873908 519.079578 
L 855.720823 522.961343 
" style="fill: none; stroke: #000000; stroke-width: 0.8; stroke-linecap: square"/>
    </g>
    <g id="text_5">
     <!-- 2.00 -->
     <g transform="translate(849.778933 541.197373) scale(0.1 -0.1)">
      <use xlink:href="#DejaVuSans-32"/>
      <use xlink:href="#DejaVuSans-2e" transform="translate(63.623047 0)"/>
      <use xlink:href="#DejaVuSans-30" transform="translate(95.410156 0)"/>
      <use xlink:href="#DejaVuSans-30" transform="translate(159.033203 0)"/>
     </g>
    </g>
   </g>
   <g id="xtick_6">
    <g id="line2d_7">
     <path d="M 822.757779 538.197004 
L 828.606835 542.13239 
" style="fill: none; stroke: #000000; stroke-width: 0.8; stroke-linecap: square"/>
    </g>
    <g id="text_6">
     <!-- 2.25 -->
     <g transform="translate(822.719382 560.428413) scale(0.1 -0.1)">
      <use xlink:href="#DejaVuSans-32"/>
      <use xlink:href="#DejaVuSans-2e" transform="translate(63.623047 0)"/>
      <use xlink:href="#DejaVuSans-32" transform="translate(95.410156 0)"/>
      <use xlink:href="#DejaVuSans-35" transform="translate(159.033203 0)"/>
     </g>
    </g>
   </g>
   <g id="xtick_7">
    <g id="line2d_8">
     <path d="M 795.266044 557.579239 
L 801.11674 561.569364 
" style="fill: none; stroke: #000000; stroke-width: 0.8; stroke-linecap: square"/>
    </g>
    <g id="text_7">
     <!-- 2.50 -->
     <g transform="translate(795.28474 579.926028) scale(0.1 -0.1)">
      <use xlink:href="#DejaVuSans-32"/>
      <use xlink:href="#DejaVuSans-2e" transform="translate(63.623047 0)"/>
      <use xlink:href="#DejaVuSans-35" transform="translate(95.410156 0)"/>
      <use xlink:href="#DejaVuSans-30" transform="translate(159.033203 0)"/>
     </g>
    </g>
   </g>
   <g id="xtick_8">
    <g id="line2d_9">
     <path d="M 767.390846 577.231824 
L 773.242658 581.277839 
" style="fill: none; stroke: #000000; stroke-width: 0.8; stroke-linecap: square"/>
    </g>
    <g id="text_8">
     <!-- 2.75 -->
     <g transform="translate(767.467153 599.695799) scale(0.1 -0.1)">
      <use xlink:href="#DejaVuSans-32"/>
      <use xlink:href="#DejaVuSans-2e" transform="translate(63.623047 0)"/>
      <use xlink:href="#DejaVuSans-37" transform="translate(95.410156 0)"/>
      <use xlink:href="#DejaVuSans-35" transform="translate(159.033203 0)"/>
     </g>
    </g>
   </g>
   <g id="xtick_9">
    <g id="line2d_10">
     <path d="M 739.124105 597.160455 
L 744.976485 601.263542 
" style="fill: none; stroke: #000000; stroke-width: 0.8; stroke-linecap: square"/>
    </g>
    <g id="text_9">
     <!-- 3.00 -->
     <g transform="translate(739.258546 619.743465) scale(0.1 -0.1)">
      <defs>
       <path id="DejaVuSans-33" d="M 2597 2516 
Q 3050 2419 3304 2112 
Q 3559 1806 3559 1356 
Q 3559 666 3084 287 
Q 2609 -91 1734 -91 
Q 1441 -91 1130 -33 
Q 819 25 488 141 
L 488 750 
Q 750 597 1062 519 
Q 1375 441 1716 441 
Q 2309 441 2620 675 
Q 2931 909 2931 1356 
Q 2931 1769 2642 2001 
Q 2353 2234 1838 2234 
L 1294 2234 
L 1294 2753 
L 1863 2753 
Q 2328 2753 2575 2939 
Q 2822 3125 2822 3475 
Q 2822 3834 2567 4026 
Q 2313 4219 1838 4219 
Q 1578 4219 1281 4162 
Q 984 4106 628 3988 
L 628 4550 
Q 988 4650 1302 4700 
Q 1616 4750 1894 4750 
Q 2613 4750 3031 4423 
Q 3450 4097 3450 3541 
Q 3450 3153 3228 2886 
Q 3006 2619 2597 2516 
z
" transform="scale(0.015625)"/>
      </defs>
      <use xlink:href="#DejaVuSans-33"/>
      <use xlink:href="#DejaVuSans-2e" transform="translate(63.623047 0)"/>
      <use xlink:href="#DejaVuSans-30" transform="translate(95.410156 0)"/>
      <use xlink:href="#DejaVuSans-30" transform="translate(159.033203 0)"/>
     </g>
    </g>
   </g>
   <g id="text_10">
    <!-- Band gap (eV) -->
    <g transform="translate(838.21658 576.12432) rotate(-35.210501) scale(0.1 -0.1)">
     <defs>
      <path id="DejaVuSans-42" d="M 1259 2228 
L 1259 519 
L 2272 519 
Q 2781 519 3026 730 
Q 3272 941 3272 1375 
Q 3272 1813 3026 2020 
Q 2781 2228 2272 2228 
L 1259 2228 
z
M 1259 4147 
L 1259 2741 
L 2194 2741 
Q 2656 2741 2882 2914 
Q 3109 3088 3109 3444 
Q 3109 3797 2882 3972 
Q 2656 4147 2194 4147 
L 1259 4147 
z
M 628 4666 
L 2241 4666 
Q 2963 4666 3353 4366 
Q 3744 4066 3744 3513 
Q 3744 3084 3544 2831 
Q 3344 2578 2956 2516 
Q 3422 2416 3680 2098 
Q 3938 1781 3938 1306 
Q 3938 681 3513 340 
Q 3088 0 2303 0 
L 628 0 
L 628 4666 
z
" transform="scale(0.015625)"/>
      <path id="DejaVuSans-61" d="M 2194 1759 
Q 1497 1759 1228 1600 
Q 959 1441 959 1056 
Q 959 750 1161 570 
Q 1363 391 1709 391 
Q 2188 391 2477 730 
Q 2766 1069 2766 1631 
L 2766 1759 
L 2194 1759 
z
M 3341 1997 
L 3341 0 
L 2766 0 
L 2766 531 
Q 2569 213 2275 61 
Q 1981 -91 1556 -91 
Q 1019 -91 701 211 
Q 384 513 384 1019 
Q 384 1609 779 1909 
Q 1175 2209 1959 2209 
L 2766 2209 
L 2766 2266 
Q 2766 2663 2505 2880 
Q 2244 3097 1772 3097 
Q 1472 3097 1187 3025 
Q 903 2953 641 2809 
L 641 3341 
Q 956 3463 1253 3523 
Q 1550 3584 1831 3584 
Q 2591 3584 2966 3190 
Q 3341 2797 3341 1997 
z
" transform="scale(0.015625)"/>
      <path id="DejaVuSans-6e" d="M 3513 2113 
L 3513 0 
L 2938 0 
L 2938 2094 
Q 2938 2591 2744 2837 
Q 2550 3084 2163 3084 
Q 1697 3084 1428 2787 
Q 1159 2491 1159 1978 
L 1159 0 
L 581 0 
L 581 3500 
L 1159 3500 
L 1159 2956 
Q 1366 3272 1645 3428 
Q 1925 3584 2291 3584 
Q 2894 3584 3203 3211 
Q 3513 2838 3513 2113 
z
" transform="scale(0.015625)"/>
      <path id="DejaVuSans-64" d="M 2906 2969 
L 2906 4863 
L 3481 4863 
L 3481 0 
L 2906 0 
L 2906 525 
Q 2725 213 2448 61 
Q 2172 -91 1784 -91 
Q 1150 -91 751 415 
Q 353 922 353 1747 
Q 353 2572 751 3078 
Q 1150 3584 1784 3584 
Q 2172 3584 2448 3432 
Q 2725 3281 2906 2969 
z
M 947 1747 
Q 947 1113 1208 752 
Q 1469 391 1925 391 
Q 2381 391 2643 752 
Q 2906 1113 2906 1747 
Q 2906 2381 2643 2742 
Q 2381 3103 1925 3103 
Q 1469 3103 1208 2742 
Q 947 2381 947 1747 
z
" transform="scale(0.015625)"/>
      <path id="DejaVuSans-20" transform="scale(0.015625)"/>
      <path id="DejaVuSans-67" d="M 2906 1791 
Q 2906 2416 2648 2759 
Q 2391 3103 1925 3103 
Q 1463 3103 1205 2759 
Q 947 2416 947 1791 
Q 947 1169 1205 825 
Q 1463 481 1925 481 
Q 2391 481 2648 825 
Q 2906 1169 2906 1791 
z
M 3481 434 
Q 3481 -459 3084 -895 
Q 2688 -1331 1869 -1331 
Q 1566 -1331 1297 -1286 
Q 1028 -1241 775 -1147 
L 775 -588 
Q 1028 -725 1275 -790 
Q 1522 -856 1778 -856 
Q 2344 -856 2625 -561 
Q 2906 -266 2906 331 
L 2906 616 
Q 2728 306 2450 153 
Q 2172 0 1784 0 
Q 1141 0 747 490 
Q 353 981 353 1791 
Q 353 2603 747 3093 
Q 1141 3584 1784 3584 
Q 2172 3584 2450 3431 
Q 2728 3278 2906 2969 
L 2906 3500 
L 3481 3500 
L 3481 434 
z
" transform="scale(0.015625)"/>
      <path id="DejaVuSans-70" d="M 1159 525 
L 1159 -1331 
L 581 -1331 
L 581 3500 
L 1159 3500 
L 1159 2969 
Q 1341 3281 1617 3432 
Q 1894 3584 2278 3584 
Q 2916 3584 3314 3078 
Q 3713 2572 3713 1747 
Q 3713 922 3314 415 
Q 2916 -91 2278 -91 
Q 1894 -91 1617 61 
Q 1341 213 1159 525 
z
M 3116 1747 
Q 3116 2381 2855 2742 
Q 2594 3103 2138 3103 
Q 1681 3103 1420 2742 
Q 1159 2381 1159 1747 
Q 1159 1113 1420 752 
Q 1681 391 2138 391 
Q 2594 391 2855 752 
Q 3116 1113 3116 1747 
z
" transform="scale(0.015625)"/>
      <path id="DejaVuSans-28" d="M 1984 4856 
Q 1566 4138 1362 3434 
Q 1159 2731 1159 2009 
Q 1159 1288 1364 580 
Q 1569 -128 1984 -844 
L 1484 -844 
Q 1016 -109 783 600 
Q 550 1309 550 2009 
Q 550 2706 781 3412 
Q 1013 4119 1484 4856 
L 1984 4856 
z
" transform="scale(0.015625)"/>
      <path id="DejaVuSans-65" d="M 3597 1894 
L 3597 1613 
L 953 1613 
Q 991 1019 1311 708 
Q 1631 397 2203 397 
Q 2534 397 2845 478 
Q 3156 559 3463 722 
L 3463 178 
Q 3153 47 2828 -22 
Q 2503 -91 2169 -91 
Q 1331 -91 842 396 
Q 353 884 353 1716 
Q 353 2575 817 3079 
Q 1281 3584 2069 3584 
Q 2775 3584 3186 3129 
Q 3597 2675 3597 1894 
z
M 3022 2063 
Q 3016 2534 2758 2815 
Q 2500 3097 2075 3097 
Q 1594 3097 1305 2825 
Q 1016 2553 972 2059 
L 3022 2063 
z
" transform="scale(0.015625)"/>
      <path id="DejaVuSans-56" d="M 1831 0 
L 50 4666 
L 709 4666 
L 2188 738 
L 3669 4666 
L 4325 4666 
L 2547 0 
L 1831 0 
z
" transform="scale(0.015625)"/>
      <path id="DejaVuSans-29" d="M 513 4856 
L 1013 4856 
Q 1481 4119 1714 3412 
Q 1947 2706 1947 2009 
Q 1947 1309 1714 600 
Q 1481 -109 1013 -844 
L 513 -844 
Q 928 -128 1133 580 
Q 1338 1288 1338 2009 
Q 1338 2731 1133 3434 
Q 928 4138 513 4856 
z
" transform="scale(0.015625)"/>
     </defs>
     <use xlink:href="#DejaVuSans-42"/>
     <use xlink:href="#DejaVuSans-61" transform="translate(68.603516 0)"/>
     <use xlink:href="#DejaVuSans-6e" transform="translate(129.882812 0)"/>
     <use xlink:href="#DejaVuSans-64" transform="translate(193.261719 0)"/>
     <use xlink:href="#DejaVuSans-20" transform="translate(256.738281 0)"/>
     <use xlink:href="#DejaVuSans-67" transform="translate(288.525391 0)"/>
     <use xlink:href="#DejaVuSans-61" transform="translate(352.001953 0)"/>
     <use xlink:href="#DejaVuSans-70" transform="translate(413.28125 0)"/>
     <use xlink:href="#DejaVuSans-20" transform="translate(476.757812 0)"/>
     <use xlink:href="#DejaVuSans-28" transform="translate(508.544922 0)"/>
     <use xlink:href="#DejaVuSans-65" transform="translate(547.558594 0)"/>
     <use xlink:href="#DejaVuSans-56" transform="translate(609.082031 0)"/>
     <use xlink:href="#DejaVuSans-29" transform="translate(677.490234 0)"/>
    </g>
   </g>
  </g>
  <g id="axis3d_2">
   <g id="line2d_11">
    <path d="M 497.838155 445.633103 
L 727.783784 607.905025 
" style="fill: none; stroke: #000000; stroke-width: 0.8; stroke-linecap: square"/>
   </g>
   <g id="xtick_10">
    <g id="line2d_12">
     <path d="M 513.16575 453.845509 
L 507.330063 457.547077 
" style="fill: none; stroke: #000000; stroke-width: 0.8; stroke-linecap: square"/>
    </g>
    <g id="text_11">
     <!-- 0 -->
     <g transform="translate(499.141715 475.577036) scale(0.1 -0.1)">
      <use xlink:href="#DejaVuSans-30"/>
     </g>
    </g>
   </g>
   <g id="xtick_11">
    <g id="line2d_13">
     <path d="M 543.147673 474.983378 
L 537.307684 478.742866 
" style="fill: none; stroke: #000000; stroke-width: 0.8; stroke-linecap: square"/>
    </g>
    <g id="text_12">
     <!-- 100 -->
     <g transform="translate(522.697597 496.839828) scale(0.1 -0.1)">
      <use xlink:href="#DejaVuSans-31"/>
      <use xlink:href="#DejaVuSans-30" transform="translate(63.623047 0)"/>
      <use xlink:href="#DejaVuSans-30" transform="translate(127.246094 0)"/>
     </g>
    </g>
   </g>
   <g id="xtick_12">
    <g id="line2d_14">
     <path d="M 573.600257 496.453073 
L 567.756549 500.271851 
" style="fill: none; stroke: #000000; stroke-width: 0.8; stroke-linecap: square"/>
    </g>
    <g id="text_13">
     <!-- 200 -->
     <g transform="translate(553.085975 518.436642) scale(0.1 -0.1)">
      <use xlink:href="#DejaVuSans-32"/>
      <use xlink:href="#DejaVuSans-30" transform="translate(63.623047 0)"/>
      <use xlink:href="#DejaVuSans-30" transform="translate(127.246094 0)"/>
     </g>
    </g>
   </g>
   <g id="xtick_13">
    <g id="line2d_15">
     <path d="M 604.534672 518.262468 
L 598.68786 522.141949 
" style="fill: none; stroke: #000000; stroke-width: 0.8; stroke-linecap: square"/>
    </g>
    <g id="text_14">
     <!-- 300 -->
     <g transform="translate(583.955508 540.375411) scale(0.1 -0.1)">
      <use xlink:href="#DejaVuSans-33"/>
      <use xlink:href="#DejaVuSans-30" transform="translate(63.623047 0)"/>
      <use xlink:href="#DejaVuSans-30" transform="translate(127.246094 0)"/>
     </g>
    </g>
   </g>
   <g id="xtick_14">
    <g id="line2d_16">
     <path d="M 635.962445 540.419691 
L 630.113173 544.361335 
" style="fill: none; stroke: #000000; stroke-width: 0.8; stroke-linecap: square"/>
    </g>
    <g id="text_15">
     <!-- 400 -->
     <g transform="translate(615.317718 562.664321) scale(0.1 -0.1)">
      <defs>
       <path id="DejaVuSans-34" d="M 2419 4116 
L 825 1625 
L 2419 1625 
L 2419 4116 
z
M 2253 4666 
L 3047 4666 
L 3047 1625 
L 3713 1625 
L 3713 1100 
L 3047 1100 
L 3047 0 
L 2419 0 
L 2419 1100 
L 313 1100 
L 313 1709 
L 2253 4666 
z
" transform="scale(0.015625)"/>
      </defs>
      <use xlink:href="#DejaVuSans-34"/>
      <use xlink:href="#DejaVuSans-30" transform="translate(63.623047 0)"/>
      <use xlink:href="#DejaVuSans-30" transform="translate(127.246094 0)"/>
     </g>
    </g>
   </g>
   <g id="xtick_15">
    <g id="line2d_17">
     <path d="M 667.895473 562.933129 
L 662.044419 566.938442 
" style="fill: none; stroke: #000000; stroke-width: 0.8; stroke-linecap: square"/>
    </g>
    <g id="text_16">
     <!-- 500 -->
     <g transform="translate(647.184492 585.311823) scale(0.1 -0.1)">
      <use xlink:href="#DejaVuSans-35"/>
      <use xlink:href="#DejaVuSans-30" transform="translate(63.623047 0)"/>
      <use xlink:href="#DejaVuSans-30" transform="translate(127.246094 0)"/>
     </g>
    </g>
   </g>
   <g id="xtick_16">
    <g id="line2d_18">
     <path d="M 700.346039 585.811442 
L 694.493914 589.881979 
" style="fill: none; stroke: #000000; stroke-width: 0.8; stroke-linecap: square"/>
    </g>
    <g id="text_17">
     <!-- 600 -->
     <g transform="translate(679.568107 608.326639) scale(0.1 -0.1)">
      <defs>
       <path id="DejaVuSans-36" d="M 2113 2584 
Q 1688 2584 1439 2293 
Q 1191 2003 1191 1497 
Q 1191 994 1439 701 
Q 1688 409 2113 409 
Q 2538 409 2786 701 
Q 3034 994 3034 1497 
Q 3034 2003 2786 2293 
Q 2538 2584 2113 2584 
z
M 3366 4563 
L 3366 3988 
Q 3128 4100 2886 4159 
Q 2644 4219 2406 4219 
Q 1781 4219 1451 3797 
Q 1122 3375 1075 2522 
Q 1259 2794 1537 2939 
Q 1816 3084 2150 3084 
Q 2853 3084 3261 2657 
Q 3669 2231 3669 1497 
Q 3669 778 3244 343 
Q 2819 -91 2113 -91 
Q 1303 -91 875 529 
Q 447 1150 447 2328 
Q 447 3434 972 4092 
Q 1497 4750 2381 4750 
Q 2619 4750 2861 4703 
Q 3103 4656 3366 4563 
z
" transform="scale(0.015625)"/>
      </defs>
      <use xlink:href="#DejaVuSans-36"/>
      <use xlink:href="#DejaVuSans-30" transform="translate(63.623047 0)"/>
      <use xlink:href="#DejaVuSans-30" transform="translate(127.246094 0)"/>
     </g>
    </g>
   </g>
   <g id="text_18">
    <!-- Coeficiente de absorción × 10³ (cm⁻¹) -->
    <g transform="translate(510.193739 500.50378) rotate(-324.789499) scale(0.1 -0.1)">
     <defs>
      <path id="DejaVuSans-43" d="M 4122 4306 
L 4122 3641 
Q 3803 3938 3442 4084 
Q 3081 4231 2675 4231 
Q 1875 4231 1450 3742 
Q 1025 3253 1025 2328 
Q 1025 1406 1450 917 
Q 1875 428 2675 428 
Q 3081 428 3442 575 
Q 3803 722 4122 1019 
L 4122 359 
Q 3791 134 3420 21 
Q 3050 -91 2638 -91 
Q 1578 -91 968 557 
Q 359 1206 359 2328 
Q 359 3453 968 4101 
Q 1578 4750 2638 4750 
Q 3056 4750 3426 4639 
Q 3797 4528 4122 4306 
z
" transform="scale(0.015625)"/>
      <path id="DejaVuSans-6f" d="M 1959 3097 
Q 1497 3097 1228 2736 
Q 959 2375 959 1747 
Q 959 1119 1226 758 
Q 1494 397 1959 397 
Q 2419 397 2687 759 
Q 2956 1122 2956 1747 
Q 2956 2369 2687 2733 
Q 2419 3097 1959 3097 
z
M 1959 3584 
Q 2709 3584 3137 3096 
Q 3566 2609 3566 1747 
Q 3566 888 3137 398 
Q 2709 -91 1959 -91 
Q 1206 -91 779 398 
Q 353 888 353 1747 
Q 353 2609 779 3096 
Q 1206 3584 1959 3584 
z
" transform="scale(0.015625)"/>
      <path id="DejaVuSans-66" d="M 2375 4863 
L 2375 4384 
L 1825 4384 
Q 1516 4384 1395 4259 
Q 1275 4134 1275 3809 
L 1275 3500 
L 2222 3500 
L 2222 3053 
L 1275 3053 
L 1275 0 
L 697 0 
L 697 3053 
L 147 3053 
L 147 3500 
L 697 3500 
L 697 3744 
Q 697 4328 969 4595 
Q 1241 4863 1831 4863 
L 2375 4863 
z
" transform="scale(0.015625)"/>
      <path id="DejaVuSans-69" d="M 603 3500 
L 1178 3500 
L 1178 0 
L 603 0 
L 603 3500 
z
M 603 4863 
L 1178 4863 
L 1178 4134 
L 603 4134 
L 603 4863 
z
" transform="scale(0.015625)"/>
      <path id="DejaVuSans-63" d="M 3122 3366 
L 3122 2828 
Q 2878 2963 2633 3030 
Q 2388 3097 2138 3097 
Q 1578 3097 1268 2742 
Q 959 2388 959 1747 
Q 959 1106 1268 751 
Q 1578 397 2138 397 
Q 2388 397 2633 464 
Q 2878 531 3122 666 
L 3122 134 
Q 2881 22 2623 -34 
Q 2366 -91 2075 -91 
Q 1284 -91 818 406 
Q 353 903 353 1747 
Q 353 2603 823 3093 
Q 1294 3584 2113 3584 
Q 2378 3584 2631 3529 
Q 2884 3475 3122 3366 
z
" transform="scale(0.015625)"/>
      <path id="DejaVuSans-74" d="M 1172 4494 
L 1172 3500 
L 2356 3500 
L 2356 3053 
L 1172 3053 
L 1172 1153 
Q 1172 725 1289 603 
Q 1406 481 1766 481 
L 2356 481 
L 2356 0 
L 1766 0 
Q 1100 0 847 248 
Q 594 497 594 1153 
L 594 3053 
L 172 3053 
L 172 3500 
L 594 3500 
L 594 4494 
L 1172 4494 
z
" transform="scale(0.015625)"/>
      <path id="DejaVuSans-62" d="M 3116 1747 
Q 3116 2381 2855 2742 
Q 2594 3103 2138 3103 
Q 1681 3103 1420 2742 
Q 1159 2381 1159 1747 
Q 1159 1113 1420 752 
Q 1681 391 2138 391 
Q 2594 391 2855 752 
Q 3116 1113 3116 1747 
z
M 1159 2969 
Q 1341 3281 1617 3432 
Q 1894 3584 2278 3584 
Q 2916 3584 3314 3078 
Q 3713 2572 3713 1747 
Q 3713 922 3314 415 
Q 2916 -91 2278 -91 
Q 1894 -91 1617 61 
Q 1341 213 1159 525 
L 1159 0 
L 581 0 
L 581 4863 
L 1159 4863 
L 1159 2969 
z
" transform="scale(0.015625)"/>
      <path id="DejaVuSans-73" d="M 2834 3397 
L 2834 2853 
Q 2591 2978 2328 3040 
Q 2066 3103 1784 3103 
Q 1356 3103 1142 2972 
Q 928 2841 928 2578 
Q 928 2378 1081 2264 
Q 1234 2150 1697 2047 
L 1894 2003 
Q 2506 1872 2764 1633 
Q 3022 1394 3022 966 
Q 3022 478 2636 193 
Q 2250 -91 1575 -91 
Q 1294 -91 989 -36 
Q 684 19 347 128 
L 347 722 
Q 666 556 975 473 
Q 1284 391 1588 391 
Q 1994 391 2212 530 
Q 2431 669 2431 922 
Q 2431 1156 2273 1281 
Q 2116 1406 1581 1522 
L 1381 1569 
Q 847 1681 609 1914 
Q 372 2147 372 2553 
Q 372 3047 722 3315 
Q 1072 3584 1716 3584 
Q 2034 3584 2315 3537 
Q 2597 3491 2834 3397 
z
" transform="scale(0.015625)"/>
      <path id="DejaVuSans-72" d="M 2631 2963 
Q 2534 3019 2420 3045 
Q 2306 3072 2169 3072 
Q 1681 3072 1420 2755 
Q 1159 2438 1159 1844 
L 1159 0 
L 581 0 
L 581 3500 
L 1159 3500 
L 1159 2956 
Q 1341 3275 1631 3429 
Q 1922 3584 2338 3584 
Q 2397 3584 2469 3576 
Q 2541 3569 2628 3553 
L 2631 2963 
z
" transform="scale(0.015625)"/>
      <path id="DejaVuSans-f3" d="M 1959 3097 
Q 1497 3097 1228 2736 
Q 959 2375 959 1747 
Q 959 1119 1226 758 
Q 1494 397 1959 397 
Q 2419 397 2687 759 
Q 2956 1122 2956 1747 
Q 2956 2369 2687 2733 
Q 2419 3097 1959 3097 
z
M 1959 3584 
Q 2709 3584 3137 3096 
Q 3566 2609 3566 1747 
Q 3566 888 3137 398 
Q 2709 -91 1959 -91 
Q 1206 -91 779 398 
Q 353 888 353 1747 
Q 353 2609 779 3096 
Q 1206 3584 1959 3584 
z
M 2394 5119 
L 3016 5119 
L 1998 3944 
L 1519 3944 
L 2394 5119 
z
" transform="scale(0.015625)"/>
      <path id="DejaVuSans-d7" d="M 4488 3438 
L 3059 2003 
L 4488 575 
L 4116 197 
L 2681 1631 
L 1247 197 
L 878 575 
L 2303 2003 
L 878 3438 
L 1247 3816 
L 2681 2381 
L 4116 3816 
L 4488 3438 
z
" transform="scale(0.015625)"/>
      <path id="DejaVuSans-b3" d="M 1638 3500 
Q 1925 3444 2083 3273 
Q 2241 3103 2241 2847 
Q 2241 2459 1944 2250 
Q 1647 2041 1094 2041 
Q 916 2041 720 2073 
Q 525 2106 306 2169 
L 306 2547 
Q 469 2463 655 2422 
Q 841 2381 1050 2381 
Q 1391 2381 1578 2504 
Q 1766 2628 1766 2847 
Q 1766 3078 1592 3197 
Q 1419 3316 1081 3316 
L 813 3316 
L 813 3653 
L 1106 3653 
Q 1400 3653 1551 3751 
Q 1703 3850 1703 4038 
Q 1703 4219 1547 4314 
Q 1391 4409 1094 4409 
Q 969 4409 809 4381 
Q 650 4353 397 4281 
L 397 4641 
Q 625 4694 825 4722 
Q 1025 4750 1197 4750 
Q 1647 4750 1911 4565 
Q 2175 4381 2175 4072 
Q 2175 3856 2034 3706 
Q 1894 3556 1638 3500 
z
" transform="scale(0.015625)"/>
      <path id="DejaVuSans-6d" d="M 3328 2828 
Q 3544 3216 3844 3400 
Q 4144 3584 4550 3584 
Q 5097 3584 5394 3201 
Q 5691 2819 5691 2113 
L 5691 0 
L 5113 0 
L 5113 2094 
Q 5113 2597 4934 2840 
Q 4756 3084 4391 3084 
Q 3944 3084 3684 2787 
Q 3425 2491 3425 1978 
L 3425 0 
L 2847 0 
L 2847 2094 
Q 2847 2600 2669 2842 
Q 2491 3084 2119 3084 
Q 1678 3084 1418 2786 
Q 1159 2488 1159 1978 
L 1159 0 
L 581 0 
L 581 3500 
L 1159 3500 
L 1159 2956 
Q 1356 3278 1631 3431 
Q 1906 3584 2284 3584 
Q 2666 3584 2933 3390 
Q 3200 3197 3328 2828 
z
" transform="scale(0.015625)"/>
      <path id="DejaVuSans-207b" d="M 428 3359 
L 2950 3359 
L 2950 3063 
L 428 3063 
L 428 3359 
z
" transform="scale(0.015625)"/>
      <path id="DejaVuSans-b9" d="M 488 2431 
L 1125 2431 
L 1125 4341 
L 428 4213 
L 428 4575 
L 1147 4697 
L 1575 4697 
L 1575 2431 
L 2216 2431 
L 2216 2088 
L 488 2088 
L 488 2431 
z
" transform="scale(0.015625)"/>
     </defs>
     <use xlink:href="#DejaVuSans-43"/>
     <use xlink:href="#DejaVuSans-6f" transform="translate(69.824219 0)"/>
     <use xlink:href="#DejaVuSans-65" transform="translate(131.005859 0)"/>
     <use xlink:href="#DejaVuSans-66" transform="translate(192.529297 0)"/>
     <use xlink:href="#DejaVuSans-69" transform="translate(227.734375 0)"/>
     <use xlink:href="#DejaVuSans-63" transform="translate(255.517578 0)"/>
     <use xlink:href="#DejaVuSans-69" transform="translate(310.498047 0)"/>
     <use xlink:href="#DejaVuSans-65" transform="translate(338.28125 0)"/>
     <use xlink:href="#DejaVuSans-6e" transform="translate(399.804688 0)"/>
     <use xlink:href="#DejaVuSans-74" transform="translate(463.183594 0)"/>
     <use xlink:href="#DejaVuSans-65" transform="translate(502.392578 0)"/>
     <use xlink:href="#DejaVuSans-20" transform="translate(563.916016 0)"/>
     <use xlink:href="#DejaVuSans-64" transform="translate(595.703125 0)"/>
     <use xlink:href="#DejaVuSans-65" transform="translate(659.179688 0)"/>
     <use xlink:href="#DejaVuSans-20" transform="translate(720.703125 0)"/>
     <use xlink:href="#DejaVuSans-61" transform="translate(752.490234 0)"/>
     <use xlink:href="#DejaVuSans-62" transform="translate(813.769531 0)"/>
     <use xlink:href="#DejaVuSans-73" transform="translate(877.246094 0)"/>
     <use xlink:href="#DejaVuSans-6f" transform="translate(929.345703 0)"/>
     <use xlink:href="#DejaVuSans-72" transform="translate(990.527344 0)"/>
     <use xlink:href="#DejaVuSans-63" transform="translate(1029.390625 0)"/>
     <use xlink:href="#DejaVuSans-69" transform="translate(1084.371094 0)"/>
     <use xlink:href="#DejaVuSans-f3" transform="translate(1112.154297 0)"/>
     <use xlink:href="#DejaVuSans-6e" transform="translate(1173.335938 0)"/>
     <use xlink:href="#DejaVuSans-20" transform="translate(1236.714844 0)"/>
     <use xlink:href="#DejaVuSans-d7" transform="translate(1268.501953 0)"/>
     <use xlink:href="#DejaVuSans-20" transform="translate(1352.291016 0)"/>
     <use xlink:href="#DejaVuSans-31" transform="translate(1384.078125 0)"/>
     <use xlink:href="#DejaVuSans-30" transform="translate(1447.701172 0)"/>
     <use xlink:href="#DejaVuSans-b3" transform="translate(1511.324219 0)"/>
     <use xlink:href="#DejaVuSans-20" transform="translate(1551.412109 0)"/>
     <use xlink:href="#DejaVuSans-28" transform="translate(1583.199219 0)"/>
     <use xlink:href="#DejaVuSans-63" transform="translate(1622.212891 0)"/>
     <use xlink:href="#DejaVuSans-6d" transform="translate(1677.193359 0)"/>
     <use xlink:href="#DejaVuSans-207b" transform="translate(1774.605469 0)"/>
     <use xlink:href="#DejaVuSans-b9" transform="translate(1827.388672 0)"/>
     <use xlink:href="#DejaVuSans-29" transform="translate(1867.476562 0)"/>
    </g>
   </g>
  </g>
  <g id="axis3d_3">
   <g id="line2d_19">
    <path d="M 497.838155 445.633103 
L 485.645993 253.846185 
" style="fill: none; stroke: #000000; stroke-width: 0.8; stroke-linecap: square"/>
   </g>
   <g id="xtick_17">
    <g id="line2d_20">
     <path d="M 499.049589 432.802958 
L 493.196294 436.474797 
" style="fill: none; stroke: #000000; stroke-width: 0.8; stroke-linecap: square"/>
    </g>
    <g id="text_19">
     <!-- 0.0 -->
     <g transform="translate(471.462963 441.62423) scale(0.1 -0.1)">
      <use xlink:href="#DejaVuSans-30"/>
      <use xlink:href="#DejaVuSans-2e" transform="translate(63.623047 0)"/>
      <use xlink:href="#DejaVuSans-30" transform="translate(95.410156 0)"/>
     </g>
    </g>
   </g>
   <g id="xtick_18">
    <g id="line2d_21">
     <path d="M 497.266547 404.506528 
L 491.365111 408.168149 
" style="fill: none; stroke: #000000; stroke-width: 0.8; stroke-linecap: square"/>
    </g>
    <g id="text_20">
     <!-- 0.2 -->
     <g transform="translate(469.525975 413.324389) scale(0.1 -0.1)">
      <use xlink:href="#DejaVuSans-30"/>
      <use xlink:href="#DejaVuSans-2e" transform="translate(63.623047 0)"/>
      <use xlink:href="#DejaVuSans-32" transform="translate(95.410156 0)"/>
     </g>
    </g>
   </g>
   <g id="xtick_19">
    <g id="line2d_22">
     <path d="M 495.455488 375.765476 
L 489.505116 379.416102 
" style="fill: none; stroke: #000000; stroke-width: 0.8; stroke-linecap: square"/>
    </g>
    <g id="text_21">
     <!-- 0.4 -->
     <g transform="translate(467.558536 384.579667) scale(0.1 -0.1)">
      <use xlink:href="#DejaVuSans-30"/>
      <use xlink:href="#DejaVuSans-2e" transform="translate(63.623047 0)"/>
      <use xlink:href="#DejaVuSans-34" transform="translate(95.410156 0)"/>
     </g>
    </g>
   </g>
   <g id="xtick_20">
    <g id="line2d_23">
     <path d="M 493.615746 346.56924 
L 487.615621 350.208061 
" style="fill: none; stroke: #000000; stroke-width: 0.8; stroke-linecap: square"/>
    </g>
    <g id="text_22">
     <!-- 0.6 -->
     <g transform="translate(465.559924 355.37949) scale(0.1 -0.1)">
      <use xlink:href="#DejaVuSans-30"/>
      <use xlink:href="#DejaVuSans-2e" transform="translate(63.623047 0)"/>
      <use xlink:href="#DejaVuSans-36" transform="translate(95.410156 0)"/>
     </g>
    </g>
   </g>
   <g id="xtick_21">
    <g id="line2d_24">
     <path d="M 491.746635 316.90692 
L 485.69592 320.533092 
" style="fill: none; stroke: #000000; stroke-width: 0.8; stroke-linecap: square"/>
    </g>
    <g id="text_23">
     <!-- 0.8 -->
     <g transform="translate(463.529392 325.712949) scale(0.1 -0.1)">
      <defs>
       <path id="DejaVuSans-38" d="M 2034 2216 
Q 1584 2216 1326 1975 
Q 1069 1734 1069 1313 
Q 1069 891 1326 650 
Q 1584 409 2034 409 
Q 2484 409 2743 651 
Q 3003 894 3003 1313 
Q 3003 1734 2745 1975 
Q 2488 2216 2034 2216 
z
M 1403 2484 
Q 997 2584 770 2862 
Q 544 3141 544 3541 
Q 544 4100 942 4425 
Q 1341 4750 2034 4750 
Q 2731 4750 3128 4425 
Q 3525 4100 3525 3541 
Q 3525 3141 3298 2862 
Q 3072 2584 2669 2484 
Q 3125 2378 3379 2068 
Q 3634 1759 3634 1313 
Q 3634 634 3220 271 
Q 2806 -91 2034 -91 
Q 1263 -91 848 271 
Q 434 634 434 1313 
Q 434 1759 690 2068 
Q 947 2378 1403 2484 
z
M 1172 3481 
Q 1172 3119 1398 2916 
Q 1625 2713 2034 2713 
Q 2441 2713 2670 2916 
Q 2900 3119 2900 3481 
Q 2900 3844 2670 4047 
Q 2441 4250 2034 4250 
Q 1625 4250 1398 4047 
Q 1172 3844 1172 3481 
z
" transform="scale(0.015625)"/>
      </defs>
      <use xlink:href="#DejaVuSans-30"/>
      <use xlink:href="#DejaVuSans-2e" transform="translate(63.623047 0)"/>
      <use xlink:href="#DejaVuSans-38" transform="translate(95.410156 0)"/>
     </g>
    </g>
   </g>
   <g id="xtick_22">
    <g id="line2d_25">
     <path d="M 489.847446 286.767265 
L 483.745283 290.379907 
" style="fill: none; stroke: #000000; stroke-width: 0.8; stroke-linecap: square"/>
    </g>
    <g id="text_24">
     <!-- 1.0 -->
     <g transform="translate(461.466168 295.568779) scale(0.1 -0.1)">
      <use xlink:href="#DejaVuSans-31"/>
      <use xlink:href="#DejaVuSans-2e" transform="translate(63.623047 0)"/>
      <use xlink:href="#DejaVuSans-30" transform="translate(95.410156 0)"/>
     </g>
    </g>
   </g>
   <g id="xtick_23">
    <g id="line2d_26">
     <path d="M 487.917447 256.13866 
L 481.762956 259.736853 
" style="fill: none; stroke: #000000; stroke-width: 0.8; stroke-linecap: square"/>
    </g>
    <g id="text_25">
     <!-- 1.2 -->
     <g transform="translate(459.369457 264.935353) scale(0.1 -0.1)">
      <use xlink:href="#DejaVuSans-31"/>
      <use xlink:href="#DejaVuSans-2e" transform="translate(63.623047 0)"/>
      <use xlink:href="#DejaVuSans-32" transform="translate(95.410156 0)"/>
     </g>
    </g>
   </g>
   <g id="text_26">
    <!-- Desacople reticular -->
    <g transform="translate(446.759211 304.060716) rotate(-273.637478) scale(0.1 -0.1)">
     <defs>
      <path id="DejaVuSans-44" d="M 1259 4147 
L 1259 519 
L 2022 519 
Q 2988 519 3436 956 
Q 3884 1394 3884 2338 
Q 3884 3275 3436 3711 
Q 2988 4147 2022 4147 
L 1259 4147 
z
M 628 4666 
L 1925 4666 
Q 3281 4666 3915 4102 
Q 4550 3538 4550 2338 
Q 4550 1131 3912 565 
Q 3275 0 1925 0 
L 628 0 
L 628 4666 
z
" transform="scale(0.015625)"/>
      <path id="DejaVuSans-6c" d="M 603 4863 
L 1178 4863 
L 1178 0 
L 603 0 
L 603 4863 
z
" transform="scale(0.015625)"/>
      <path id="DejaVuSans-75" d="M 544 1381 
L 544 3500 
L 1119 3500 
L 1119 1403 
Q 1119 906 1312 657 
Q 1506 409 1894 409 
Q 2359 409 2629 706 
Q 2900 1003 2900 1516 
L 2900 3500 
L 3475 3500 
L 3475 0 
L 2900 0 
L 2900 538 
Q 2691 219 2414 64 
Q 2138 -91 1772 -91 
Q 1169 -91 856 284 
Q 544 659 544 1381 
z
M 1991 3584 
L 1991 3584 
z
" transform="scale(0.015625)"/>
     </defs>
     <use xlink:href="#DejaVuSans-44"/>
     <use xlink:href="#DejaVuSans-65" transform="translate(77.001953 0)"/>
     <use xlink:href="#DejaVuSans-73" transform="translate(138.525391 0)"/>
     <use xlink:href="#DejaVuSans-61" transform="translate(190.625 0)"/>
     <use xlink:href="#DejaVuSans-63" transform="translate(251.904297 0)"/>
     <use xlink:href="#DejaVuSans-6f" transform="translate(306.884766 0)"/>
     <use xlink:href="#DejaVuSans-70" transform="translate(368.066406 0)"/>
     <use xlink:href="#DejaVuSans-6c" transform="translate(431.542969 0)"/>
     <use xlink:href="#DejaVuSans-65" transform="translate(459.326172 0)"/>
     <use xlink:href="#DejaVuSans-20" transform="translate(520.849609 0)"/>
     <use xlink:href="#DejaVuSans-72" transform="translate(552.636719 0)"/>
     <use xlink:href="#DejaVuSans-65" transform="translate(591.5 0)"/>
     <use xlink:href="#DejaVuSans-74" transform="translate(653.023438 0)"/>
     <use xlink:href="#DejaVuSans-69" transform="translate(692.232422 0)"/>
     <use xlink:href="#DejaVuSans-63" transform="translate(720.015625 0)"/>
     <use xlink:href="#DejaVuSans-75" transform="translate(774.996094 0)"/>
     <use xlink:href="#DejaVuSans-6c" transform="translate(838.375 0)"/>
     <use xlink:href="#DejaVuSans-61" transform="translate(866.158203 0)"/>
     <use xlink:href="#DejaVuSans-72" transform="translate(927.4375 0)"/>
    </g>
   </g>
  </g>
  <g id="axes_1">
   <g id="Path3DCollection_1">
    <defs>
     <path id="C0_0_216743ab55" d="M 0 3.535534 
C 0.937635 3.535534 1.836992 3.163008 2.5 2.5 
C 3.163008 1.836992 3.535534 0.937635 3.535534 -0 
C 3.535534 -0.937635 3.163008 -1.836992 2.5 -2.5 
C 1.836992 -3.163008 0.937635 -3.535534 0 -3.535534 
C -0.937635 -3.535534 -1.836992 -3.163008 -2.5 -2.5 
C -3.163008 -1.836992 -3.535534 -0.937635 -3.535534 0 
C -3.535534 0.937635 -3.163008 1.836992 -2.5 2.5 
C -1.836992 3.163008 -0.937635 3.535534 0 3.535534 
z
"/>
    </defs>
    <g clip-path="url(#p8f569f4698)">
     <use xlink:href="#C0_0_216743ab55" x="670.005635" y="349.252632" style="fill: #0000ff; stroke: #0000ff"/>
    </g>
    <g clip-path="url(#p8f569f4698)">
     <use xlink:href="#C0_0_216743ab55" x="748.42994" y="248.559109" style="fill: #0000ff; stroke: #0000ff"/>
    </g>
    <g clip-path="url(#p8f569f4698)">
     <use xlink:href="#C0_0_216743ab55" x="740.179086" y="246.533256" style="fill: #0000ff; stroke: #0000ff"/>
    </g>
    <g clip-path="url(#p8f569f4698)">
     <use xlink:href="#C0_0_216743ab55" x="738.821638" y="234.226516" style="fill: #0000ff; stroke: #0000ff"/>
    </g>
    <g clip-path="url(#p8f569f4698)">
     <use xlink:href="#C0_0_216743ab55" x="718.223729" y="264.91753" style="fill: #0000ff; stroke: #0000ff"/>
    </g>
    <g clip-path="url(#p8f569f4698)">
     <use xlink:href="#C0_0_216743ab55" x="680.407585" y="287.084917" style="fill: #0000ff; stroke: #0000ff"/>
    </g>
    <g clip-path="url(#p8f569f4698)">
     <use xlink:href="#C0_0_216743ab55" x="801.132205" y="369.62979" style="fill: #0000ff; stroke: #0000ff"/>
    </g>
    <g clip-path="url(#p8f569f4698)">
     <use xlink:href="#C0_0_216743ab55" x="748.63628" y="226.995957" style="fill: #0000ff; stroke: #0000ff"/>
    </g>
    <g clip-path="url(#p8f569f4698)">
     <use xlink:href="#C0_0_216743ab55" x="727.524429" y="259.815557" style="fill: #0000ff; stroke: #0000ff"/>
    </g>
    <g clip-path="url(#p8f569f4698)">
     <use xlink:href="#C0_0_216743ab55" x="620.660694" y="387.707884" style="fill: #0000ff; stroke: #0000ff"/>
    </g>
    <g clip-path="url(#p8f569f4698)">
     <use xlink:href="#C0_0_216743ab55" x="671.813804" y="310.420178" style="fill: #0000ff; stroke: #0000ff"/>
    </g>
    <g clip-path="url(#p8f569f4698)">
     <use xlink:href="#C0_0_216743ab55" x="724.220994" y="178.560725" style="fill: #0000ff; stroke: #0000ff"/>
    </g>
    <g clip-path="url(#p8f569f4698)">
     <use xlink:href="#C0_0_216743ab55" x="693.331506" y="259.775883" style="fill: #0000ff; stroke: #0000ff"/>
    </g>
    <g clip-path="url(#p8f569f4698)">
     <use xlink:href="#C0_0_216743ab55" x="667.239833" y="326.832972" style="fill: #0000ff; stroke: #0000ff"/>
    </g>
    <g clip-path="url(#p8f569f4698)">
     <use xlink:href="#C0_0_216743ab55" x="666.644315" y="284.434477" style="fill: #0000ff; stroke: #0000ff"/>
    </g>
    <g clip-path="url(#p8f569f4698)">
     <use xlink:href="#C0_0_216743ab55" x="717.130682" y="190.13993" style="fill: #0000ff; stroke: #0000ff"/>
    </g>
    <g clip-path="url(#p8f569f4698)">
     <use xlink:href="#C0_0_216743ab55" x="619.152738" y="341.091046" style="fill: #0000ff; stroke: #0000ff"/>
    </g>
    <g clip-path="url(#p8f569f4698)">
     <use xlink:href="#C0_0_216743ab55" x="677.245606" y="313.018179" style="fill: #0000ff; stroke: #0000ff"/>
    </g>
    <g clip-path="url(#p8f569f4698)">
     <use xlink:href="#C0_0_216743ab55" x="730.6259" y="164.398088" style="fill: #0000ff; stroke: #0000ff"/>
    </g>
    <g clip-path="url(#p8f569f4698)">
     <use xlink:href="#C0_0_216743ab55" x="651.283999" y="315.342987" style="fill: #0000ff; stroke: #0000ff"/>
    </g>
    <g clip-path="url(#p8f569f4698)">
     <use xlink:href="#C0_0_216743ab55" x="733.051691" y="196.490299" style="fill: #0000ff; stroke: #0000ff"/>
    </g>
    <g clip-path="url(#p8f569f4698)">
     <use xlink:href="#C0_0_216743ab55" x="782.112271" y="366.847969" style="fill: #0000ff; stroke: #0000ff"/>
    </g>
    <g clip-path="url(#p8f569f4698)">
     <use xlink:href="#C0_0_216743ab55" x="677.306564" y="239.830037" style="fill: #0000ff; stroke: #0000ff"/>
    </g>
    <g clip-path="url(#p8f569f4698)">
     <use xlink:href="#C0_0_216743ab55" x="682.229651" y="273.188278" style="fill: #0000ff; stroke: #0000ff"/>
    </g>
    <g clip-path="url(#p8f569f4698)">
     <use xlink:href="#C0_0_216743ab55" x="678.321308" y="284.966013" style="fill: #0000ff; stroke: #0000ff"/>
    </g>
    <g clip-path="url(#p8f569f4698)">
     <use xlink:href="#C0_0_216743ab55" x="751.785263" y="185.821655" style="fill: #0000ff; stroke: #0000ff"/>
    </g>
    <g clip-path="url(#p8f569f4698)">
     <use xlink:href="#C0_0_216743ab55" x="743.605687" y="186.82605" style="fill: #0000ff; stroke: #0000ff"/>
    </g>
    <g clip-path="url(#p8f569f4698)">
     <use xlink:href="#C0_0_216743ab55" x="715.247775" y="251.226395" style="fill: #0000ff; stroke: #0000ff"/>
    </g>
    <g clip-path="url(#p8f569f4698)">
     <use xlink:href="#C0_0_216743ab55" x="558.065833" y="410.553765" style="fill: #0000ff; stroke: #0000ff"/>
    </g>
    <g clip-path="url(#p8f569f4698)">
     <use xlink:href="#C0_0_216743ab55" x="719.540955" y="168.129867" style="fill: #0000ff; stroke: #0000ff"/>
    </g>
    <g clip-path="url(#p8f569f4698)">
     <use xlink:href="#C0_0_216743ab55" x="611.628786" y="320.610927" style="fill: #0000ff; stroke: #0000ff"/>
    </g>
    <g clip-path="url(#p8f569f4698)">
     <use xlink:href="#C0_0_216743ab55" x="640.047071" y="339.89921" style="fill: #0000ff; stroke: #0000ff"/>
    </g>
    <g clip-path="url(#p8f569f4698)">
     <use xlink:href="#C0_0_216743ab55" x="675.963073" y="284.158094" style="fill: #0000ff; stroke: #0000ff"/>
    </g>
    <g clip-path="url(#p8f569f4698)">
     <use xlink:href="#C0_0_216743ab55" x="670.564448" y="269.376948" style="fill: #0000ff; stroke: #0000ff"/>
    </g>
    <g clip-path="url(#p8f569f4698)">
     <use xlink:href="#C0_0_216743ab55" x="649.194066" y="313.817969" style="fill: #0000ff; stroke: #0000ff"/>
    </g>
    <g clip-path="url(#p8f569f4698)">
     <use xlink:href="#C0_0_216743ab55" x="738.616569" y="181.557982" style="fill: #0000ff; stroke: #0000ff"/>
    </g>
    <g clip-path="url(#p8f569f4698)">
     <use xlink:href="#C0_0_216743ab55" x="710.538513" y="161.082192" style="fill: #0000ff; stroke: #0000ff"/>
    </g>
    <g clip-path="url(#p8f569f4698)">
     <use xlink:href="#C0_0_216743ab55" x="607.664262" y="309.00339" style="fill: #0000ff; stroke: #0000ff"/>
    </g>
    <g clip-path="url(#p8f569f4698)">
     <use xlink:href="#C0_0_216743ab55" x="652.726329" y="304.588932" style="fill: #0000ff; stroke: #0000ff"/>
    </g>
    <g clip-path="url(#p8f569f4698)">
     <use xlink:href="#C0_0_216743ab55" x="619.595048" y="315.767051" style="fill: #0000ff; stroke: #0000ff"/>
    </g>
    <g clip-path="url(#p8f569f4698)">
     <use xlink:href="#C0_0_216743ab55" x="603.859271" y="328.212963" style="fill: #0000ff; stroke: #0000ff"/>
    </g>
    <g clip-path="url(#p8f569f4698)">
     <use xlink:href="#C0_0_216743ab55" x="716.866339" y="260.520888" style="fill: #0000ff; stroke: #0000ff"/>
    </g>
    <g clip-path="url(#p8f569f4698)">
     <use xlink:href="#C0_0_216743ab55" x="627.943558" y="279.729494" style="fill: #0000ff; stroke: #0000ff"/>
    </g>
    <g clip-path="url(#p8f569f4698)">
     <use xlink:href="#C0_0_216743ab55" x="633.520997" y="269.449551" style="fill: #0000ff; stroke: #0000ff"/>
    </g>
    <g clip-path="url(#p8f569f4698)">
     <use xlink:href="#C0_0_216743ab55" x="677.664612" y="194.233005" style="fill: #0000ff; stroke: #0000ff"/>
    </g>
    <g clip-path="url(#p8f569f4698)">
     <use xlink:href="#C0_0_216743ab55" x="826.364189" y="293.909042" style="fill: #0000ff; stroke: #0000ff"/>
    </g>
    <g clip-path="url(#p8f569f4698)">
     <use xlink:href="#C0_0_216743ab55" x="631.991013" y="303.73419" style="fill: #0000ff; stroke: #0000ff"/>
    </g>
    <g clip-path="url(#p8f569f4698)">
     <use xlink:href="#C0_0_216743ab55" x="605.212058" y="311.867829" style="fill: #0000ff; stroke: #0000ff"/>
    </g>
    <g clip-path="url(#p8f569f4698)">
     <use xlink:href="#C0_0_216743ab55" x="611.157618" y="298.335947" style="fill: #0000ff; stroke: #0000ff"/>
    </g>
    <g clip-path="url(#p8f569f4698)">
     <use xlink:href="#C0_0_216743ab55" x="671.76311" y="269.804587" style="fill: #0000ff; stroke: #0000ff"/>
    </g>
    <g clip-path="url(#p8f569f4698)">
     <use xlink:href="#C0_0_216743ab55" x="555.87213" y="375.787498" style="fill: #0000ff; stroke: #0000ff"/>
    </g>
    <g clip-path="url(#p8f569f4698)">
     <use xlink:href="#C0_0_216743ab55" x="702.821143" y="192.985954" style="fill: #0000ff; stroke: #0000ff"/>
    </g>
    <g clip-path="url(#p8f569f4698)">
     <use xlink:href="#C0_0_216743ab55" x="665.044755" y="265.490378" style="fill: #0000ff; stroke: #0000ff"/>
    </g>
    <g clip-path="url(#p8f569f4698)">
     <use xlink:href="#C0_0_216743ab55" x="730.327617" y="205.891757" style="fill: #0000ff; stroke: #0000ff"/>
    </g>
    <g clip-path="url(#p8f569f4698)">
     <use xlink:href="#C0_0_216743ab55" x="638.109435" y="280.711638" style="fill: #0000ff; stroke: #0000ff"/>
    </g>
    <g clip-path="url(#p8f569f4698)">
     <use xlink:href="#C0_0_216743ab55" x="655.001073" y="201.315529" style="fill: #0000ff; stroke: #0000ff"/>
    </g>
    <g clip-path="url(#p8f569f4698)">
     <use xlink:href="#C0_0_216743ab55" x="606.820409" y="314.148461" style="fill: #0000ff; stroke: #0000ff"/>
    </g>
    <g clip-path="url(#p8f569f4698)">
     <use xlink:href="#C0_0_216743ab55" x="589.949317" y="318.702761" style="fill: #0000ff; stroke: #0000ff"/>
    </g>
    <g clip-path="url(#p8f569f4698)">
     <use xlink:href="#C0_0_216743ab55" x="580.04042" y="319.912364" style="fill: #0000ff; stroke: #0000ff"/>
    </g>
    <g clip-path="url(#p8f569f4698)">
     <use xlink:href="#C0_0_216743ab55" x="642.594625" y="235.409375" style="fill: #0000ff; stroke: #0000ff"/>
    </g>
    <g clip-path="url(#p8f569f4698)">
     <use xlink:href="#C0_0_216743ab55" x="591.760056" y="294.742963" style="fill: #0000ff; stroke: #0000ff"/>
    </g>
    <g clip-path="url(#p8f569f4698)">
     <use xlink:href="#C0_0_216743ab55" x="557.226349" y="344.32523" style="fill: #0000ff; stroke: #0000ff"/>
    </g>
    <g clip-path="url(#p8f569f4698)">
     <use xlink:href="#C0_0_216743ab55" x="576.028564" y="322.334" style="fill: #0000ff; stroke: #0000ff"/>
    </g>
    <g clip-path="url(#p8f569f4698)">
     <use xlink:href="#C0_0_216743ab55" x="579.201067" y="310.523722" style="fill: #0000ff; stroke: #0000ff"/>
    </g>
    <g clip-path="url(#p8f569f4698)">
     <use xlink:href="#C0_0_216743ab55" x="874.996934" y="471.746472" style="fill: #0000ff; stroke: #0000ff"/>
    </g>
    <g clip-path="url(#p8f569f4698)">
     <use xlink:href="#C0_0_216743ab55" x="858.394658" y="273.151383" style="fill: #0000ff; stroke: #0000ff"/>
    </g>
    <g clip-path="url(#p8f569f4698)">
     <use xlink:href="#C0_0_216743ab55" x="575.232138" y="312.862185" style="fill: #0000ff; stroke: #0000ff"/>
    </g>
    <g clip-path="url(#p8f569f4698)">
     <use xlink:href="#C0_0_216743ab55" x="707.617562" y="192.363735" style="fill: #0000ff; stroke: #0000ff"/>
    </g>
    <g clip-path="url(#p8f569f4698)">
     <use xlink:href="#C0_0_216743ab55" x="683.588087" y="194.553363" style="fill: #0000ff; stroke: #0000ff"/>
    </g>
    <g clip-path="url(#p8f569f4698)">
     <use xlink:href="#C0_0_216743ab55" x="637.529866" y="216.350892" style="fill: #0000ff; stroke: #0000ff"/>
    </g>
    <g clip-path="url(#p8f569f4698)">
     <use xlink:href="#C0_0_216743ab55" x="611.753427" y="266.638505" style="fill: #0000ff; stroke: #0000ff"/>
    </g>
    <g clip-path="url(#p8f569f4698)">
     <use xlink:href="#C0_0_216743ab55" x="537.618684" y="347.484199" style="fill: #0000ff; stroke: #0000ff"/>
    </g>
    <g clip-path="url(#p8f569f4698)">
     <use xlink:href="#C0_0_216743ab55" x="743.927082" y="247.597961" style="fill: #0000ff; stroke: #0000ff"/>
    </g>
    <g clip-path="url(#p8f569f4698)">
     <use xlink:href="#C0_0_216743ab55" x="597.946827" y="269.02905" style="fill: #0000ff; stroke: #0000ff"/>
    </g>
    <g clip-path="url(#p8f569f4698)">
     <use xlink:href="#C0_0_216743ab55" x="551.397519" y="321.835752" style="fill: #0000ff; stroke: #0000ff"/>
    </g>
    <g clip-path="url(#p8f569f4698)">
     <use xlink:href="#C0_0_216743ab55" x="538.694639" y="334.476797" style="fill: #0000ff; stroke: #0000ff"/>
    </g>
    <g clip-path="url(#p8f569f4698)">
     <use xlink:href="#C0_0_216743ab55" x="558.103631" y="301.006684" style="fill: #0000ff; stroke: #0000ff"/>
    </g>
    <g clip-path="url(#p8f569f4698)">
     <use xlink:href="#C0_0_216743ab55" x="530.370938" y="338.747887" style="fill: #0000ff; stroke: #0000ff"/>
    </g>
    <g clip-path="url(#p8f569f4698)">
     <use xlink:href="#C0_0_216743ab55" x="547.277462" y="308.552549" style="fill: #0000ff; stroke: #0000ff"/>
    </g>
    <g clip-path="url(#p8f569f4698)">
     <use xlink:href="#C0_0_216743ab55" x="522.907843" y="341.251593" style="fill: #0000ff; stroke: #0000ff"/>
    </g>
    <g clip-path="url(#p8f569f4698)">
     <use xlink:href="#C0_0_216743ab55" x="530.352436" y="322.532696" style="fill: #0000ff; stroke: #0000ff"/>
    </g>
    <g clip-path="url(#p8f569f4698)">
     <use xlink:href="#C0_0_216743ab55" x="796.059158" y="229.315428" style="fill: #0000ff; stroke: #0000ff"/>
    </g>
    <g clip-path="url(#p8f569f4698)">
     <use xlink:href="#C0_0_216743ab55" x="878.598489" y="259.051577" style="fill: #0000ff; stroke: #0000ff"/>
    </g>
    <g clip-path="url(#p8f569f4698)">
     <use xlink:href="#C0_0_216743ab55" x="521.257901" y="293.927258" style="fill: #0000ff; stroke: #0000ff"/>
    </g>
    <g clip-path="url(#p8f569f4698)">
     <use xlink:href="#C0_0_216743ab55" x="871.438987" y="295.868093" style="fill: #0000ff; stroke: #0000ff"/>
    </g>
   </g>
   <g id="legend_1">
    <g id="patch_6">
     <path d="M 583 487.470625 
L 698.139063 487.470625 
Q 700.139063 487.470625 700.139063 485.470625 
L 700.139063 413.08 
Q 700.139063 411.08 698.139063 411.08 
L 583 411.08 
Q 581 411.08 581 413.08 
L 581 485.470625 
Q 581 487.470625 583 487.470625 
z
" style="fill: #ffffff; opacity: 0.8; stroke: #cccccc; stroke-linejoin: miter"/>
    </g>
    <g id="text_27">
     <!-- Número de elementos -->
     <g transform="translate(585 422.678438) scale(0.1 -0.1)">
      <defs>
       <path id="DejaVuSans-4e" d="M 628 4666 
L 1478 4666 
L 3547 763 
L 3547 4666 
L 4159 4666 
L 4159 0 
L 3309 0 
L 1241 3903 
L 1241 0 
L 628 0 
L 628 4666 
z
" transform="scale(0.015625)"/>
       <path id="DejaVuSans-fa" d="M 544 1381 
L 544 3500 
L 1119 3500 
L 1119 1403 
Q 1119 906 1312 657 
Q 1506 409 1894 409 
Q 2359 409 2629 706 
Q 2900 1003 2900 1516 
L 2900 3500 
L 3475 3500 
L 3475 0 
L 2900 0 
L 2900 538 
Q 2691 219 2414 64 
Q 2138 -91 1772 -91 
Q 1169 -91 856 284 
Q 544 659 544 1381 
z
M 1991 3584 
L 1991 3584 
z
M 2418 5119 
L 3040 5119 
L 2022 3944 
L 1543 3944 
L 2418 5119 
z
" transform="scale(0.015625)"/>
      </defs>
      <use xlink:href="#DejaVuSans-4e"/>
      <use xlink:href="#DejaVuSans-fa" transform="translate(74.804688 0)"/>
      <use xlink:href="#DejaVuSans-6d" transform="translate(138.183594 0)"/>
      <use xlink:href="#DejaVuSans-65" transform="translate(235.595703 0)"/>
      <use xlink:href="#DejaVuSans-72" transform="translate(297.119141 0)"/>
      <use xlink:href="#DejaVuSans-6f" transform="translate(335.982422 0)"/>
      <use xlink:href="#DejaVuSans-20" transform="translate(397.164062 0)"/>
      <use xlink:href="#DejaVuSans-64" transform="translate(428.951172 0)"/>
      <use xlink:href="#DejaVuSans-65" transform="translate(492.427734 0)"/>
      <use xlink:href="#DejaVuSans-20" transform="translate(553.951172 0)"/>
      <use xlink:href="#DejaVuSans-65" transform="translate(585.738281 0)"/>
      <use xlink:href="#DejaVuSans-6c" transform="translate(647.261719 0)"/>
      <use xlink:href="#DejaVuSans-65" transform="translate(675.044922 0)"/>
      <use xlink:href="#DejaVuSans-6d" transform="translate(736.568359 0)"/>
      <use xlink:href="#DejaVuSans-65" transform="translate(833.980469 0)"/>
      <use xlink:href="#DejaVuSans-6e" transform="translate(895.503906 0)"/>
      <use xlink:href="#DejaVuSans-74" transform="translate(958.882812 0)"/>
      <use xlink:href="#DejaVuSans-6f" transform="translate(998.091797 0)"/>
      <use xlink:href="#DejaVuSans-73" transform="translate(1059.273438 0)"/>
     </g>
    </g>
    <g id="line2d_27">
     <path d="M 623.388281 433.856563 
L 633.388281 433.856563 
L 643.388281 433.856563 
" style="fill: none; stroke: #ffffff; stroke-width: 1.5; stroke-linecap: square"/>
     <defs>
      <path id="mab00c235ba" d="M 0 4 
C 1.060812 4 2.078319 3.578535 2.828427 2.828427 
C 3.578535 2.078319 4 1.060812 4 0 
C 4 -1.060812 3.578535 -2.078319 2.828427 -2.828427 
C 2.078319 -3.578535 1.060812 -4 0 -4 
C -1.060812 -4 -2.078319 -3.578535 -2.828427 -2.828427 
C -3.578535 -2.078319 -4 -1.060812 -4 0 
C -4 1.060812 -3.578535 2.078319 -2.828427 2.828427 
C -2.078319 3.578535 -1.060812 4 0 4 
z
" style="stroke: #ffffff"/>
     </defs>
     <g>
      <use xlink:href="#mab00c235ba" x="633.388281" y="433.856563" style="fill: #440154; stroke: #ffffff"/>
     </g>
    </g>
    <g id="text_28">
     <!-- 1 -->
     <g transform="translate(651.388281 437.356563) scale(0.1 -0.1)">
      <use xlink:href="#DejaVuSans-31"/>
     </g>
    </g>
    <g id="line2d_28">
     <path d="M 623.388281 448.534688 
L 633.388281 448.534688 
L 643.388281 448.534688 
" style="fill: none; stroke: #ffffff; stroke-width: 1.5; stroke-linecap: square"/>
     <defs>
      <path id="m6bb8e3a571" d="M 0 4 
C 1.060812 4 2.078319 3.578535 2.828427 2.828427 
C 3.578535 2.078319 4 1.060812 4 0 
C 4 -1.060812 3.578535 -2.078319 2.828427 -2.828427 
C 2.078319 -3.578535 1.060812 -4 0 -4 
C -1.060812 -4 -2.078319 -3.578535 -2.828427 -2.828427 
C -3.578535 -2.078319 -4 -1.060812 -4 0 
C -4 1.060812 -3.578535 2.078319 -2.828427 2.828427 
C -2.078319 3.578535 -1.060812 4 0 4 
z
" style="stroke: #ffffff"/>
     </defs>
     <g>
      <use xlink:href="#m6bb8e3a571" x="633.388281" y="448.534688" style="fill: #31688e; stroke: #ffffff"/>
     </g>
    </g>
    <g id="text_29">
     <!-- 2 -->
     <g transform="translate(651.388281 452.034688) scale(0.1 -0.1)">
      <use xlink:href="#DejaVuSans-32"/>
     </g>
    </g>
    <g id="line2d_29">
     <path d="M 623.388281 463.212813 
L 633.388281 463.212813 
L 643.388281 463.212813 
" style="fill: none; stroke: #ffffff; stroke-width: 1.5; stroke-linecap: square"/>
     <defs>
      <path id="m59ed1d314b" d="M 0 4 
C 1.060812 4 2.078319 3.578535 2.828427 2.828427 
C 3.578535 2.078319 4 1.060812 4 0 
C 4 -1.060812 3.578535 -2.078319 2.828427 -2.828427 
C 2.078319 -3.578535 1.060812 -4 0 -4 
C -1.060812 -4 -2.078319 -3.578535 -2.828427 -2.828427 
C -3.578535 -2.078319 -4 -1.060812 -4 0 
C -4 1.060812 -3.578535 2.078319 -2.828427 2.828427 
C -2.078319 3.578535 -1.060812 4 0 4 
z
" style="stroke: #ffffff"/>
     </defs>
     <g>
      <use xlink:href="#m59ed1d314b" x="633.388281" y="463.212813" style="fill: #35b779; stroke: #ffffff"/>
     </g>
    </g>
    <g id="text_30">
     <!-- 3 -->
     <g transform="translate(651.388281 466.712813) scale(0.1 -0.1)">
      <use xlink:href="#DejaVuSans-33"/>
     </g>
    </g>
    <g id="line2d_30">
     <path d="M 623.388281 477.890938 
L 633.388281 477.890938 
L 643.388281 477.890938 
" style="fill: none; stroke: #ffffff; stroke-width: 1.5; stroke-linecap: square"/>
     <defs>
      <path id="m6665921a21" d="M 0 4 
C 1.060812 4 2.078319 3.578535 2.828427 2.828427 
C 3.578535 2.078319 4 1.060812 4 0 
C 4 -1.060812 3.578535 -2.078319 2.828427 -2.828427 
C 2.078319 -3.578535 1.060812 -4 0 -4 
C -1.060812 -4 -2.078319 -3.578535 -2.828427 -2.828427 
C -3.578535 -2.078319 -4 -1.060812 -4 0 
C -4 1.060812 -3.578535 2.078319 -2.828427 2.828427 
C -2.078319 3.578535 -1.060812 4 0 4 
z
" style="stroke: #ffffff"/>
     </defs>
     <g>
      <use xlink:href="#m6665921a21" x="633.388281" y="477.890938" style="fill: #fde725; stroke: #ffffff"/>
     </g>
    </g>
    <g id="text_31">
     <!-- 4 -->
     <g transform="translate(651.388281 481.390938) scale(0.1 -0.1)">
      <use xlink:href="#DejaVuSans-34"/>
     </g>
    </g>
   </g>
  </g>
 </g>
 <defs>
  <clipPath id="p8f569f4698">
   <rect x="432" y="72" width="576" height="576"/>
  </clipPath>
 </defs>
</svg>
